<svg width="108" height="108" viewBox="0 0 108 108" fill="none" xmlns="http://www.w3.org/2000/svg">
<path d="M67.8134 32.6667L54.0001 46.48L40.1867 32.6667L32.6667 40.1867L46.4801 54L32.6667 67.8134L40.1867 75.3334L54.0001 61.52L67.8134 75.3334L75.3334 67.8134L61.5201 54L75.3334 40.1867L67.8134 32.6667ZM54.0001 0.666687C24.5067 0.666687 0.666748 24.5067 0.666748 54C0.666748 83.4934 24.5067 107.333 54.0001 107.333C83.4934 107.333 107.333 83.4934 107.333 54C107.333 24.5067 83.4934 0.666687 54.0001 0.666687ZM54.0001 96.6667C30.4801 96.6667 11.3334 77.52 11.3334 54C11.3334 30.48 30.4801 11.3334 54.0001 11.3334C77.5201 11.3334 96.6668 30.48 96.6668 54C96.6668 77.52 77.5201 96.6667 54.0001 96.6667Z" fill="#15479E"/>
</svg>
