<svg stroke-linejoin="round" width="535" height="385" viewBox="0 0 535 385" fill="none" xmlns="http://www.w3.org/2000/svg">
<path fill-rule="evenodd" clip-rule="evenodd" d="M534.312 376.43H396.672V368.438C410.547 368.438 419.75 360.699 424.281 345.152C427.484 334.238 429.082 314.441 429.082 285.703V142.324H427.484L325.055 384.422H319.918L223.824 148.289L223.43 277.328C223.43 297.312 225.957 314.953 231.027 330.113C238.23 351.879 249.699 364.625 265.438 368.438V376.43H163.41V369.957C178.082 365.641 189.684 351.879 198.223 328.527C204.887 310.004 208.219 291.289 208.219 272.258V171.953C208.219 154.191 205.621 140.297 200.418 130.332C195.215 120.309 187.813 113.773 178.211 110.73V105.398H278.238L356.262 272.891L427.551 105.398H527.914L528.309 111.113C517.105 113.902 509.773 119.105 506.301 126.715C504.168 131.543 503.105 140.988 503.105 154.949V292.172C503.105 317.359 504.441 334.746 507.105 344.391C511.637 360.438 520.711 368.438 534.312 368.438V376.43ZM231.426 110.73L328.652 352.828L322.586 366.535L233.426 142.324C231.563 137.25 227.691 131.414 221.824 124.812C215.156 117.203 208.887 112.504 203.023 110.73H231.426Z" fill="#15479E" stroke="#15479E" stroke-linejoin="round"/>
<path fill-rule="evenodd" clip-rule="evenodd" d="M195.605 171.902C180.992 179.191 166.602 184.707 152.438 188.43C138.266 192.164 122.539 194.031 105.254 194.031C76.918 194.031 52.9453 185.973 33.3438 169.867C11.7773 152.07 1 128.246 1 98.4062C1 68.2266 11.7773 44.0625 33.3438 25.9258C53.1289 9.30859 77.2773 1 105.785 1C122.898 1 138.711 2.69141 153.242 6.08594C167.762 9.47656 181.176 14.3945 193.469 20.8398L176.094 77.2969L172.086 75.7695C169.586 56.4414 164.418 41.3555 156.582 30.5C146.777 17.1055 133.055 10.4102 115.414 10.4102C95.4531 10.4102 79.9492 20.6641 68.8984 41.1797C59.9922 57.7969 55.5273 76.875 55.5273 98.4062C55.5273 119.938 59.7188 138.758 68.0938 154.863C78.7891 175.379 94.1133 185.637 114.074 185.637C132.434 185.637 147.133 180.043 158.188 168.852C168.516 158.34 175.207 143.336 178.227 123.836L181.977 122.309L195.605 171.902ZM45.6445 164.016C61.8047 177.057 83.957 185.973 112.473 191.234C83.6016 191.234 59.543 183.602 40.2969 168.34C18.9062 151.383 8.21875 128.074 8.21875 98.4062C8.21875 68.3906 18.9961 44.6602 40.5625 27.1953C59.8086 11.5977 83.7812 3.79688 112.473 3.79688C84.1367 8.88281 61.7695 18.293 45.3711 32.0312C25.3047 48.8425 15.7031 70.7695 15.7031 98.4062C15.7031 126.039 25.6875 147.91 45.6445 164.016Z" fill="#15479E" stroke="#15479E" stroke-linejoin="round"/>
<path fill-rule="evenodd" clip-rule="evenodd" d="M248.207 95.0195C246.762 96.25 245.367 97.1133 244.031 97.625C242.695 98.1328 241.262 98.3828 239.727 98.3828C237.203 98.3828 235.266 97.7695 233.906 96.5391C232.547 95.3164 231.871 93.7422 231.871 91.832C231.871 90.7109 232.129 89.6836 232.637 88.7539C233.152 87.8242 233.824 87.0859 234.648 86.5273C235.484 85.9648 236.414 85.5352 237.453 85.25C238.223 85.0508 239.383 84.8594 240.922 84.668C244.066 84.2969 246.391 83.8477 247.875 83.332C247.891 82.8008 247.895 82.4609 247.895 82.3203C247.895 80.7422 247.527 79.625 246.789 78.9766C245.793 78.0977 244.309 77.6641 242.348 77.6641C240.512 77.6641 239.152 77.9883 238.281 78.6289C237.402 79.2734 236.762 80.4102 236.34 82.0469L232.535 81.5156C232.879 79.8828 233.449 78.5625 234.246 77.5586C235.043 76.5547 236.191 75.7891 237.699 75.2422C239.195 74.7031 240.945 74.4297 242.922 74.4297C244.887 74.4297 246.488 74.6602 247.719 75.125C248.945 75.5898 249.852 76.1641 250.426 76.8672C251.004 77.5664 251.41 78.4531 251.645 79.5234C251.77 80.1875 251.836 81.3828 251.836 83.1016V88.2656C251.836 91.875 251.918 94.1562 252.078 95.1211C252.234 96.0898 252.559 97.0117 253.031 97.8984H248.957C248.566 97.0781 248.316 96.1172 248.207 95.0195ZM241.52 87.8477C244.355 87.4492 246.48 86.9609 247.895 86.3867L247.875 87.8008C247.875 89.5078 247.668 90.7969 247.246 91.6758C246.699 92.8047 245.836 93.6992 244.672 94.3477C243.5 95.0039 242.164 95.3281 240.664 95.3281C239.152 95.3281 238 94.9844 237.211 94.2969C236.422 93.6094 236.031 92.7461 236.031 91.7188C236.031 91.043 236.215 90.4297 236.578 89.875C236.938 89.3281 237.449 88.9102 238.113 88.6211C238.773 88.332 239.914 88.0742 241.52 87.8477Z" fill="#15479E"/>
<path d="M257.777 97.8984V74.918H261.273V78.4375C262.168 76.8086 262.992 75.7305 263.754 75.2148C264.512 74.6914 265.348 74.4297 266.254 74.4297C267.566 74.4297 268.902 74.8437 270.262 75.6641L268.875 79.2578C267.93 78.7266 266.984 78.4609 266.039 78.4609C265.191 78.4609 264.434 78.7187 263.762 79.2266C263.09 79.7383 262.609 80.4453 262.32 81.3516C261.887 82.7344 261.672 84.2461 261.672 85.8906V97.8984H257.777Z" fill="#15479E"/>
<path fill-rule="evenodd" clip-rule="evenodd" d="M283.402 86.4062C283.402 82.1641 284.586 79.0234 286.953 76.9766C288.922 75.2812 291.336 74.4297 294.176 74.4297C297.328 74.4297 299.91 75.4648 301.918 77.5312C303.918 79.5898 304.922 82.4453 304.922 86.082C304.922 89.0352 304.477 91.3516 303.594 93.043C302.707 94.7305 301.414 96.0469 299.719 96.9805C298.027 97.918 296.176 98.3828 294.176 98.3828C290.961 98.3828 288.363 97.3594 286.379 95.3008C284.395 93.2422 283.402 90.2734 283.402 86.4062ZM287.391 86.4141C287.391 89.3516 288.031 91.5508 289.312 93.0039C290.605 94.4648 292.223 95.1953 294.176 95.1953C296.109 95.1953 297.719 94.4648 299.012 92.9961C300.293 91.5273 300.938 89.293 300.938 86.2891C300.938 83.457 300.289 81.3086 298.996 79.8555C297.703 78.3945 296.098 77.6641 294.176 77.6641C292.223 77.6641 290.605 78.3867 289.312 79.8398C288.031 81.293 287.391 83.4844 287.391 86.4141ZM290.93 72.0859L293.766 66.0195H298.898L294.164 72.0859H290.93ZM309.445 97.8984V74.918H312.941V78.4375C313.832 76.8086 314.66 75.7305 315.422 75.2148C316.18 74.6914 317.016 74.4297 317.922 74.4297C319.234 74.4297 320.57 74.8437 321.93 75.6641L320.543 79.2578C319.598 78.7266 318.652 78.4609 317.707 78.4609C316.859 78.4609 316.102 78.7187 315.43 79.2266C314.758 79.7383 314.277 80.4453 313.988 81.3516C313.555 82.7344 313.34 84.2461 313.34 85.8906V97.8984H309.445ZM324.23 70.625V66.1953H328.129V70.625H324.23ZM324.23 97.8984V74.918H328.129V97.8984H324.23ZM332.605 86.4062C332.605 82.1641 333.789 79.0234 336.156 76.9766C338.125 75.2812 340.539 74.4297 343.379 74.4297C346.531 74.4297 349.113 75.4648 351.121 77.5312C353.121 79.5898 354.125 82.4453 354.125 86.082C354.125 89.0352 353.68 91.3516 352.797 93.043C351.91 94.7305 350.617 96.0469 348.922 96.9805C347.23 97.918 345.379 98.3828 343.379 98.3828C340.164 98.3828 337.566 97.3594 335.582 95.3008C333.594 93.2422 332.605 90.2734 332.605 86.4062ZM336.59 86.4141C336.59 89.3516 337.234 91.5508 338.516 93.0039C339.809 94.4648 341.426 95.1953 343.379 95.1953C345.313 95.1953 346.922 94.4648 348.211 92.9961C349.496 91.5273 350.141 89.293 350.141 86.2891C350.141 83.457 349.488 81.3086 348.199 79.8555C346.906 78.3945 345.297 77.6641 343.379 77.6641C341.426 77.6641 339.809 78.3867 338.516 79.8398C337.234 81.293 336.59 83.4844 336.59 86.4141ZM371.391 66.1953H377.676L385.172 88.6367C385.867 90.7227 386.371 92.2891 386.688 93.3281C387.047 92.1797 387.617 90.4805 388.383 88.2461L396.016 66.1953H401.629V97.8984H397.602V71.3789L388.348 97.8984H384.57L375.418 70.8906V97.8984H371.391V66.1953ZM422.879 95.0195C421.434 96.25 420.039 97.1133 418.703 97.625C417.367 98.1328 415.938 98.3828 414.402 98.3828C411.879 98.3828 409.938 97.7695 408.582 96.5391C407.223 95.3164 406.543 93.7422 406.543 91.832C406.543 90.7109 406.801 89.6836 407.312 88.7539C407.828 87.8242 408.5 87.0859 409.324 86.5273C410.16 85.9648 411.09 85.5352 412.129 85.25C412.895 85.0508 414.055 84.8594 415.598 84.668C418.742 84.2969 421.066 83.8477 422.547 83.332C422.562 82.8008 422.57 82.4609 422.57 82.3203C422.57 80.7422 422.203 79.625 421.465 78.9766C420.465 78.0977 418.984 77.6641 417.02 77.6641C415.184 77.6641 413.828 77.9883 412.957 78.6289C412.078 79.2734 411.438 80.4102 411.016 82.0469L407.207 81.5156C407.555 79.8828 408.121 78.5625 408.918 77.5586C409.715 76.5547 410.867 75.7891 412.371 75.2422C413.871 74.7031 415.621 74.4297 417.598 74.4297C419.559 74.4297 421.16 74.6602 422.395 75.125C423.617 75.5898 424.523 76.1641 425.102 76.8672C425.676 77.5664 426.082 78.4531 426.316 79.5234C426.445 80.1875 426.512 81.3828 426.512 83.1016V88.2656C426.512 91.875 426.59 94.1562 426.754 95.1211C426.91 96.0898 427.234 97.0117 427.707 97.8984H423.633C423.242 97.0781 422.992 96.1172 422.879 95.0195ZM422.57 86.3867C421.152 86.9609 419.027 87.4492 416.195 87.8477C414.586 88.0742 413.449 88.332 412.785 88.6211C412.121 88.9102 411.613 89.3281 411.25 89.875C410.891 90.4297 410.707 91.043 410.707 91.7188C410.707 92.7461 411.098 93.6094 411.887 94.2969C412.676 94.9844 413.828 95.3281 415.34 95.3281C416.836 95.3281 418.172 95.0039 419.344 94.3477C420.512 93.6992 421.375 92.8047 421.922 91.6758C422.34 90.7969 422.547 89.5078 422.547 87.8008L422.57 86.3867ZM432.449 97.8984V74.918H435.949V78.4375C436.84 76.8086 437.668 75.7305 438.426 75.2148C439.188 74.6914 440.02 74.4297 440.93 74.4297C442.242 74.4297 443.578 74.8437 444.934 75.6641L443.547 79.2578C442.602 78.7266 441.66 78.4609 440.715 78.4609C439.867 78.4609 439.105 78.7187 438.434 79.2266C437.762 79.7383 437.285 80.4453 436.996 81.3516C436.559 82.7344 436.348 84.2461 436.348 85.8906V97.8984H432.449ZM447.238 70.625V66.1953H451.133V70.625H447.238ZM447.238 97.8984V74.918H451.133V97.8984H447.238ZM457.074 97.8984V74.918H460.57V78.1797C462.254 75.6797 464.688 74.4297 467.871 74.4297C469.258 74.4297 470.523 74.6836 471.684 75.1758C472.844 75.6719 473.715 76.3281 474.289 77.1328C474.863 77.9375 475.27 78.8945 475.5 80.0039C475.641 80.7266 475.711 81.9883 475.711 83.7891V97.8984H471.816V83.9336C471.816 82.3477 471.668 81.1602 471.367 80.3789C471.063 79.5977 470.523 78.9687 469.758 78.4961C468.992 78.0312 468.082 77.7969 467.051 77.7969C465.398 77.7969 463.973 78.3203 462.77 79.375C461.566 80.4219 460.969 82.4219 460.969 85.3594V97.8984H457.074ZM481.699 66.1953H485.594V77.6055C487.402 75.4883 489.68 74.4297 492.441 74.4297C494.129 74.4297 495.598 74.7617 496.852 75.4336C498.102 76.1055 498.992 77.0273 499.531 78.2109C500.07 79.3906 500.336 81.1094 500.336 83.3516V97.8984H496.441V83.3672C496.441 81.4258 496.02 80.0117 495.188 79.125C494.344 78.2383 493.164 77.7969 491.629 77.7969C490.484 77.7969 489.41 78.0898 488.398 78.6914C487.387 79.2852 486.672 80.0977 486.234 81.125C485.809 82.1406 485.594 83.5508 485.594 85.3516V97.8984H481.699V66.1953ZM504.859 86.4062C504.859 82.1641 506.039 79.0234 508.41 76.9766C510.379 75.2812 512.793 74.4297 515.633 74.4297C518.785 74.4297 521.367 75.4648 523.371 77.5312C525.371 79.5898 526.375 82.4453 526.375 86.082C526.375 89.0352 525.934 91.3516 525.047 93.043C524.164 94.7305 522.871 96.0469 521.176 96.9805C519.484 97.918 517.633 98.3828 515.633 98.3828C512.414 98.3828 509.816 97.3594 507.832 95.3008C505.848 93.2422 504.859 90.2734 504.859 86.4062ZM508.844 86.4141C508.844 89.3516 509.484 91.5508 510.77 93.0039C512.063 94.4648 513.676 95.1953 515.633 95.1953C517.566 95.1953 519.176 94.4648 520.465 92.9961C521.75 91.5273 522.391 89.293 522.391 86.2891C522.391 83.457 521.742 81.3086 520.449 79.8555C519.16 78.3945 517.551 77.6641 515.633 77.6641C513.676 77.6641 512.063 78.3867 510.77 79.8398C509.484 81.293 508.844 83.4844 508.844 86.4141Z" fill="#15479E"/>
<path d="M281.02 94.4219L281.551 97.8594C280.457 98.0898 279.477 98.207 278.621 98.207C277.211 98.207 276.121 97.9844 275.34 97.5352C274.563 97.0859 274.016 96.5039 273.699 95.7734C273.383 95.0391 273.227 93.5078 273.227 91.168V77.9297H270.352V74.918H273.227V69.2383L277.125 66.8984V74.918H281.02V77.9297H277.125V91.3867C277.125 92.5039 277.191 93.2187 277.332 93.5352C277.461 93.8516 277.684 94.1055 277.996 94.2969C278.305 94.4805 278.746 94.5742 279.324 94.5742C279.75 94.5742 280.32 94.5234 281.02 94.4219Z" fill="#15479E"/>
<path d="M224.293 86.7773L228.496 87.8398C227.621 91.2852 226.039 93.9062 223.762 95.7148C221.48 97.5195 218.691 98.4297 215.395 98.4297C211.984 98.4297 209.207 97.7344 207.07 96.3398C204.93 94.9531 203.305 92.9375 202.191 90.3047C201.078 87.6602 200.516 84.8359 200.516 81.8125C200.516 78.5117 201.145 75.6328 202.406 73.1758C203.668 70.7187 205.461 68.8516 207.785 67.5742C210.109 66.3008 212.668 65.6641 215.457 65.6641C218.633 65.6641 221.297 66.4687 223.449 68.0859C225.613 69.7031 227.117 71.9687 227.965 74.8867L223.848 75.8633C223.117 73.5625 222.047 71.8789 220.652 70.8281C219.258 69.7773 217.504 69.25 215.387 69.25C212.957 69.25 210.922 69.8359 209.289 71C207.66 72.1641 206.508 73.7383 205.852 75.6992C205.188 77.6719 204.855 79.6992 204.855 81.7891C204.855 84.4805 205.246 86.8359 206.027 88.8438C206.813 90.8594 208.027 92.3555 209.684 93.3516C211.332 94.3477 213.121 94.8438 215.047 94.8438C217.391 94.8438 219.371 94.1641 220.992 92.8125C222.617 91.4531 223.715 89.4492 224.293 86.7773Z" fill="#15479E"/>
<path fill-rule="evenodd" clip-rule="evenodd" d="M248.207 95.0195C246.762 96.25 245.367 97.1133 244.031 97.625C242.695 98.1328 241.262 98.3828 239.727 98.3828C237.203 98.3828 235.266 97.7695 233.906 96.5391C232.547 95.3164 231.871 93.7422 231.871 91.832C231.871 90.7109 232.129 89.6836 232.637 88.7539C233.152 87.8242 233.824 87.0859 234.648 86.5273C235.484 85.9648 236.414 85.5352 237.453 85.25C238.223 85.0508 239.383 84.8594 240.922 84.668C244.066 84.2969 246.391 83.8477 247.875 83.332C247.891 82.8008 247.895 82.4609 247.895 82.3203C247.895 80.7422 247.527 79.625 246.789 78.9766C245.793 78.0977 244.309 77.6641 242.348 77.6641C240.512 77.6641 239.152 77.9883 238.281 78.6289C237.402 79.2734 236.762 80.4102 236.34 82.0469L232.535 81.5156C232.879 79.8828 233.449 78.5625 234.246 77.5586C235.043 76.5547 236.191 75.7891 237.699 75.2422C239.195 74.7031 240.945 74.4297 242.922 74.4297C244.887 74.4297 246.488 74.6602 247.719 75.125C248.945 75.5898 249.852 76.1641 250.426 76.8672C251.004 77.5664 251.41 78.4531 251.645 79.5234C251.77 80.1875 251.836 81.3828 251.836 83.1016V88.2656C251.836 91.875 251.918 94.1562 252.078 95.1211C252.234 96.0898 252.559 97.0117 253.031 97.8984H248.957C248.566 97.0781 248.316 96.1172 248.207 95.0195ZM241.52 87.8477C244.355 87.4492 246.48 86.9609 247.895 86.3867L247.875 87.8008C247.875 89.5078 247.668 90.7969 247.246 91.6758C246.699 92.8047 245.836 93.6992 244.672 94.3477C243.5 95.0039 242.164 95.3281 240.664 95.3281C239.152 95.3281 238 94.9844 237.211 94.2969C236.422 93.6094 236.031 92.7461 236.031 91.7188C236.031 91.043 236.215 90.4297 236.578 89.875C236.938 89.3281 237.449 88.9102 238.113 88.6211C238.773 88.332 239.914 88.0742 241.52 87.8477Z" stroke="#15479E" stroke-linejoin="round"/>
<path d="M257.777 97.8984V74.918H261.273V78.4375C262.168 76.8086 262.992 75.7305 263.754 75.2148C264.512 74.6914 265.348 74.4297 266.254 74.4297C267.566 74.4297 268.902 74.8437 270.262 75.6641L268.875 79.2578C267.93 78.7266 266.984 78.4609 266.039 78.4609C265.191 78.4609 264.434 78.7187 263.762 79.2266C263.09 79.7383 262.609 80.4453 262.32 81.3516C261.887 82.7344 261.672 84.2461 261.672 85.8906V97.8984H257.777Z" stroke="#15479E" stroke-linejoin="round"/>
<path fill-rule="evenodd" clip-rule="evenodd" d="M283.402 86.4062C283.402 82.1641 284.586 79.0234 286.953 76.9766C288.922 75.2812 291.336 74.4297 294.176 74.4297C297.328 74.4297 299.91 75.4648 301.918 77.5312C303.918 79.5898 304.922 82.4453 304.922 86.082C304.922 89.0352 304.477 91.3516 303.594 93.043C302.707 94.7305 301.414 96.0469 299.719 96.9805C298.027 97.918 296.176 98.3828 294.176 98.3828C290.961 98.3828 288.363 97.3594 286.379 95.3008C284.395 93.2422 283.402 90.2734 283.402 86.4062ZM287.391 86.4141C287.391 89.3516 288.031 91.5508 289.312 93.0039C290.605 94.4648 292.223 95.1953 294.176 95.1953C296.109 95.1953 297.719 94.4648 299.012 92.9961C300.293 91.5273 300.938 89.293 300.938 86.2891C300.938 83.457 300.289 81.3086 298.996 79.8555C297.703 78.3945 296.098 77.6641 294.176 77.6641C292.223 77.6641 290.605 78.3867 289.312 79.8398C288.031 81.293 287.391 83.4844 287.391 86.4141ZM290.93 72.0859L293.766 66.0195H298.898L294.164 72.0859H290.93ZM309.445 97.8984V74.918H312.941V78.4375C313.832 76.8086 314.66 75.7305 315.422 75.2148C316.18 74.6914 317.016 74.4297 317.922 74.4297C319.234 74.4297 320.57 74.8437 321.93 75.6641L320.543 79.2578C319.598 78.7266 318.652 78.4609 317.707 78.4609C316.859 78.4609 316.102 78.7187 315.43 79.2266C314.758 79.7383 314.277 80.4453 313.988 81.3516C313.555 82.7344 313.34 84.2461 313.34 85.8906V97.8984H309.445ZM324.23 70.625V66.1953H328.129V70.625H324.23ZM324.23 97.8984V74.918H328.129V97.8984H324.23ZM332.605 86.4062C332.605 82.1641 333.789 79.0234 336.156 76.9766C338.125 75.2812 340.539 74.4297 343.379 74.4297C346.531 74.4297 349.113 75.4648 351.121 77.5312C353.121 79.5898 354.125 82.4453 354.125 86.082C354.125 89.0352 353.68 91.3516 352.797 93.043C351.91 94.7305 350.617 96.0469 348.922 96.9805C347.23 97.918 345.379 98.3828 343.379 98.3828C340.164 98.3828 337.566 97.3594 335.582 95.3008C333.594 93.2422 332.605 90.2734 332.605 86.4062ZM336.59 86.4141C336.59 89.3516 337.234 91.5508 338.516 93.0039C339.809 94.4648 341.426 95.1953 343.379 95.1953C345.313 95.1953 346.922 94.4648 348.211 92.9961C349.496 91.5273 350.141 89.293 350.141 86.2891C350.141 83.457 349.488 81.3086 348.199 79.8555C346.906 78.3945 345.297 77.6641 343.379 77.6641C341.426 77.6641 339.809 78.3867 338.516 79.8398C337.234 81.293 336.59 83.4844 336.59 86.4141ZM371.391 66.1953H377.676L385.172 88.6367C385.867 90.7227 386.371 92.2891 386.688 93.3281C387.047 92.1797 387.617 90.4805 388.383 88.2461L396.016 66.1953H401.629V97.8984H397.602V71.3789L388.348 97.8984H384.57L375.418 70.8906V97.8984H371.391V66.1953ZM422.879 95.0195C421.434 96.25 420.039 97.1133 418.703 97.625C417.367 98.1328 415.938 98.3828 414.402 98.3828C411.879 98.3828 409.938 97.7695 408.582 96.5391C407.223 95.3164 406.543 93.7422 406.543 91.832C406.543 90.7109 406.801 89.6836 407.312 88.7539C407.828 87.8242 408.5 87.0859 409.324 86.5273C410.16 85.9648 411.09 85.5352 412.129 85.25C412.895 85.0508 414.055 84.8594 415.598 84.668C418.742 84.2969 421.066 83.8477 422.547 83.332C422.562 82.8008 422.57 82.4609 422.57 82.3203C422.57 80.7422 422.203 79.625 421.465 78.9766C420.465 78.0977 418.984 77.6641 417.02 77.6641C415.184 77.6641 413.828 77.9883 412.957 78.6289C412.078 79.2734 411.438 80.4102 411.016 82.0469L407.207 81.5156C407.555 79.8828 408.121 78.5625 408.918 77.5586C409.715 76.5547 410.867 75.7891 412.371 75.2422C413.871 74.7031 415.621 74.4297 417.598 74.4297C419.559 74.4297 421.16 74.6602 422.395 75.125C423.617 75.5898 424.523 76.1641 425.102 76.8672C425.676 77.5664 426.082 78.4531 426.316 79.5234C426.445 80.1875 426.512 81.3828 426.512 83.1016V88.2656C426.512 91.875 426.59 94.1562 426.754 95.1211C426.91 96.0898 427.234 97.0117 427.707 97.8984H423.633C423.242 97.0781 422.992 96.1172 422.879 95.0195ZM422.57 86.3867C421.152 86.9609 419.027 87.4492 416.195 87.8477C414.586 88.0742 413.449 88.332 412.785 88.6211C412.121 88.9102 411.613 89.3281 411.25 89.875C410.891 90.4297 410.707 91.043 410.707 91.7188C410.707 92.7461 411.098 93.6094 411.887 94.2969C412.676 94.9844 413.828 95.3281 415.34 95.3281C416.836 95.3281 418.172 95.0039 419.344 94.3477C420.512 93.6992 421.375 92.8047 421.922 91.6758C422.34 90.7969 422.547 89.5078 422.547 87.8008L422.57 86.3867ZM432.449 97.8984V74.918H435.949V78.4375C436.84 76.8086 437.668 75.7305 438.426 75.2148C439.188 74.6914 440.02 74.4297 440.93 74.4297C442.242 74.4297 443.578 74.8437 444.934 75.6641L443.547 79.2578C442.602 78.7266 441.66 78.4609 440.715 78.4609C439.867 78.4609 439.105 78.7187 438.434 79.2266C437.762 79.7383 437.285 80.4453 436.996 81.3516C436.559 82.7344 436.348 84.2461 436.348 85.8906V97.8984H432.449ZM447.238 70.625V66.1953H451.133V70.625H447.238ZM447.238 97.8984V74.918H451.133V97.8984H447.238ZM457.074 97.8984V74.918H460.57V78.1797C462.254 75.6797 464.688 74.4297 467.871 74.4297C469.258 74.4297 470.523 74.6836 471.684 75.1758C472.844 75.6719 473.715 76.3281 474.289 77.1328C474.863 77.9375 475.27 78.8945 475.5 80.0039C475.641 80.7266 475.711 81.9883 475.711 83.7891V97.8984H471.816V83.9336C471.816 82.3477 471.668 81.1602 471.367 80.3789C471.063 79.5977 470.523 78.9687 469.758 78.4961C468.992 78.0312 468.082 77.7969 467.051 77.7969C465.398 77.7969 463.973 78.3203 462.77 79.375C461.566 80.4219 460.969 82.4219 460.969 85.3594V97.8984H457.074ZM481.699 66.1953H485.594V77.6055C487.402 75.4883 489.68 74.4297 492.441 74.4297C494.129 74.4297 495.598 74.7617 496.852 75.4336C498.102 76.1055 498.992 77.0273 499.531 78.2109C500.07 79.3906 500.336 81.1094 500.336 83.3516V97.8984H496.441V83.3672C496.441 81.4258 496.02 80.0117 495.188 79.125C494.344 78.2383 493.164 77.7969 491.629 77.7969C490.484 77.7969 489.41 78.0898 488.398 78.6914C487.387 79.2852 486.672 80.0977 486.234 81.125C485.809 82.1406 485.594 83.5508 485.594 85.3516V97.8984H481.699V66.1953ZM504.859 86.4062C504.859 82.1641 506.039 79.0234 508.41 76.9766C510.379 75.2812 512.793 74.4297 515.633 74.4297C518.785 74.4297 521.367 75.4648 523.371 77.5312C525.371 79.5898 526.375 82.4453 526.375 86.082C526.375 89.0352 525.934 91.3516 525.047 93.043C524.164 94.7305 522.871 96.0469 521.176 96.9805C519.484 97.918 517.633 98.3828 515.633 98.3828C512.414 98.3828 509.816 97.3594 507.832 95.3008C505.848 93.2422 504.859 90.2734 504.859 86.4062ZM508.844 86.4141C508.844 89.3516 509.484 91.5508 510.77 93.0039C512.063 94.4648 513.676 95.1953 515.633 95.1953C517.566 95.1953 519.176 94.4648 520.465 92.9961C521.75 91.5273 522.391 89.293 522.391 86.2891C522.391 83.457 521.742 81.3086 520.449 79.8555C519.16 78.3945 517.551 77.6641 515.633 77.6641C513.676 77.6641 512.063 78.3867 510.77 79.8398C509.484 81.293 508.844 83.4844 508.844 86.4141Z" stroke="#15479E" stroke-linejoin="round"/>
<path d="M281.02 94.4219L281.551 97.8594C280.457 98.0898 279.477 98.207 278.621 98.207C277.211 98.207 276.121 97.9844 275.34 97.5352C274.563 97.0859 274.016 96.5039 273.699 95.7734C273.383 95.0391 273.227 93.5078 273.227 91.168V77.9297H270.352V74.918H273.227V69.2383L277.125 66.8984V74.918H281.02V77.9297H277.125V91.3867C277.125 92.5039 277.191 93.2187 277.332 93.5352C277.461 93.8516 277.684 94.1055 277.996 94.2969C278.305 94.4805 278.746 94.5742 279.324 94.5742C279.75 94.5742 280.32 94.5234 281.02 94.4219Z" stroke="#15479E" stroke-linejoin="round"/>
<path d="M224.293 86.7773L228.496 87.8398C227.621 91.2852 226.039 93.9062 223.762 95.7148C221.48 97.5195 218.691 98.4297 215.395 98.4297C211.984 98.4297 209.207 97.7344 207.07 96.3398C204.93 94.9531 203.305 92.9375 202.191 90.3047C201.078 87.6602 200.516 84.8359 200.516 81.8125C200.516 78.5117 201.145 75.6328 202.406 73.1758C203.668 70.7187 205.461 68.8516 207.785 67.5742C210.109 66.3008 212.668 65.6641 215.457 65.6641C218.633 65.6641 221.297 66.4687 223.449 68.0859C225.613 69.7031 227.117 71.9687 227.965 74.8867L223.848 75.8633C223.117 73.5625 222.047 71.8789 220.652 70.8281C219.258 69.7773 217.504 69.25 215.387 69.25C212.957 69.25 210.922 69.8359 209.289 71C207.66 72.1641 206.508 73.7383 205.852 75.6992C205.188 77.6719 204.855 79.6992 204.855 81.7891C204.855 84.4805 205.246 86.8359 206.027 88.8438C206.813 90.8594 208.027 92.3555 209.684 93.3516C211.332 94.3477 213.121 94.8438 215.047 94.8438C217.391 94.8438 219.371 94.1641 220.992 92.8125C222.617 91.4531 223.715 89.4492 224.293 86.7773Z" stroke="#15479E" stroke-linejoin="round"/>
</svg>
