<svg width="198" height="107" viewBox="0 0 198 107" fill="none" xmlns="http://www.w3.org/2000/svg">
<path d="M33.1164 69.5574C27.5118 69.5574 22.6195 68.7965 18.4393 67.2747C14.29 65.7242 10.853 63.5133 8.12814 60.642C5.40328 57.7707 3.35963 54.239 1.9972 50.0469C0.665734 45.8548 0 41.1458 0 35.9201C0 29.9765 0.820555 24.7507 2.46167 20.2427C4.10278 15.7348 6.4251 11.9877 9.42865 9.00155C12.4632 6.01539 16.1324 3.77577 20.4365 2.28269C24.7715 0.760897 29.5864 0 34.8813 0C37.8849 0 41.229 0.258419 44.9138 0.775257C48.6295 1.29209 52.0666 2.11041 55.2249 3.23023C55.3488 5.72826 55.3178 8.41293 55.132 11.2842C54.9462 14.1268 54.6521 16.9407 54.2495 19.7259H48.1651L45.9356 10.0783C45.8118 9.41789 45.564 8.84363 45.1925 8.35551C44.8209 7.86739 44.2945 7.43669 43.6133 7.06342C42.6224 6.51787 41.1052 6.01539 39.0615 5.55598C37.0179 5.09657 34.8659 4.86687 32.6055 4.86687C26.1958 4.86687 21.1022 7.20698 17.3246 11.8872C13.5469 16.5674 11.6581 24.0328 11.6581 34.2834C11.6581 38.7627 12.0451 42.883 12.8192 46.6444C13.6243 50.3771 14.8629 53.5786 16.535 56.2489C18.238 58.8905 20.421 60.9579 23.0839 62.4509C25.7778 63.944 28.9981 64.6906 32.7448 64.6906C34.7885 64.6906 36.8011 64.4465 38.7829 63.9584C40.7955 63.4703 42.4676 62.8242 43.7991 62.0202C44.3874 61.6757 44.8519 61.2737 45.1925 60.8143C45.564 60.3262 45.8892 59.7232 46.1679 59.0054L49.3262 50.133L55.3643 50.6499C55.4262 53.0331 55.3488 55.5742 55.132 58.2732C54.9462 60.9435 54.6211 63.5564 54.1567 66.1119C51.4628 67.1455 48.2115 67.9782 44.4029 68.6099C40.5943 69.2416 36.8321 69.5574 33.1164 69.5574Z" fill="#001768"/>
<path d="M75.9981 102.452V106.845H50.1274V102.452L57.0944 101.203C57.8685 101.088 58.4568 100.815 58.8594 100.385C59.2929 99.9251 59.5561 99.3365 59.649 98.6187L66.1979 48.2272C66.3218 47.452 66.1824 46.8203 65.7799 46.3321C65.4083 45.8153 64.8045 45.4995 63.9685 45.3846L55.5617 44.0494V39.5702H80.7821L98.2925 89.9186L113.713 39.5702H139.026V44.0494L130.526 45.3846C129.659 45.5282 129.04 45.8584 128.669 46.3752C128.328 46.8633 128.22 47.5094 128.343 48.3133L136.982 98.6617C137.075 99.3508 137.339 99.9251 137.772 100.385C138.236 100.815 138.825 101.088 139.537 101.203L146.458 102.452V106.845H118.218V102.452L126.904 101.031L117.893 48.098L100.661 104.002H93.2298L73.0256 48.0549L66.4302 101.031L75.9981 102.452Z" fill="#001768"/>
<path d="M58.3136 36.7944C58.648 36.7944 58.9871 36.7362 59.3308 36.6199C59.6745 36.4993 59.9671 36.3465 60.2086 36.1613V34.4363L58.8779 34.5461C58.3159 34.5892 57.884 34.7076 57.5821 34.9015C57.2848 35.0953 57.1362 35.3903 57.1362 35.7865C57.1362 36.1053 57.2314 36.3529 57.4218 36.5295C57.6169 36.7061 57.9142 36.7944 58.3136 36.7944ZM61.5324 37.6665C61.1979 37.6665 60.9239 37.589 60.7103 37.434C60.4966 37.2746 60.348 37.0442 60.2644 36.7427C59.9718 37.0356 59.6072 37.2703 59.1706 37.4469C58.734 37.6192 58.2672 37.7053 57.7702 37.7053C57.4544 37.7053 57.1594 37.6665 56.8854 37.589C56.6114 37.5115 56.3745 37.3995 56.1748 37.2531C55.9797 37.1023 55.8241 36.9171 55.708 36.6975C55.5965 36.4735 55.5408 36.2194 55.5408 35.9351C55.5408 35.5604 55.6337 35.246 55.8194 34.9919C56.0052 34.7378 56.2444 34.5332 56.537 34.3782C56.8343 34.2231 57.1641 34.1068 57.5264 34.0293C57.8933 33.9518 58.2532 33.9001 58.6062 33.8743L60.2086 33.7515V32.8793C60.2086 32.2161 60.0647 31.7488 59.7767 31.4774C59.4934 31.2061 59.0591 31.0704 58.4739 31.0704C58.0326 31.0704 57.6146 31.1393 57.2198 31.2772C56.8297 31.4107 56.4674 31.6217 56.133 31.9103L55.7776 31.5808C55.8659 31.3353 56.0099 31.1178 56.2096 30.9283C56.4093 30.7345 56.6439 30.573 56.9133 30.4438C57.1873 30.3146 57.4938 30.2176 57.8329 30.153C58.172 30.0841 58.525 30.0497 58.8919 30.0497C59.8162 30.0497 60.5105 30.2672 60.975 30.7022C61.4395 31.1329 61.6717 31.794 61.6717 32.6855V36.3421C61.6717 36.48 61.7042 36.5812 61.7692 36.6458C61.8389 36.7061 61.9388 36.7427 62.0688 36.7556L62.87 36.8202V37.434C62.7539 37.4727 62.5565 37.5201 62.2778 37.5761C62.0038 37.6364 61.7553 37.6665 61.5324 37.6665Z" fill="#001768"/>
<path d="M68.4771 36.9171V37.5567H63.9486V36.8977L64.8055 36.775C64.9263 36.7578 65.0192 36.7168 65.0842 36.6522C65.1539 36.5833 65.1887 36.4929 65.1887 36.3809V31.5937C65.1887 31.4645 65.1585 31.3633 65.0981 31.2901C65.0424 31.2169 64.9472 31.1716 64.8125 31.1544L63.851 31.0252V30.3921C64.218 30.2887 64.6151 30.2069 65.0424 30.1466C65.4697 30.0863 65.8645 30.054 66.2268 30.0497L66.4637 30.2564L66.6239 31.4387C66.7679 31.2535 66.9397 31.0747 67.1395 30.9024C67.3392 30.7302 67.5528 30.5794 67.7804 30.4502C68.008 30.3167 68.2472 30.2112 68.498 30.1337C68.7535 30.0518 69.0066 30.0109 69.2574 30.0109C69.4014 30.0109 69.5663 30.026 69.7521 30.0561C69.9379 30.0863 70.0888 30.1293 70.2049 30.1853C70.2374 30.5471 70.2374 30.9563 70.2049 31.4128C70.1771 31.8694 70.1213 32.285 70.0377 32.6597H69.3062L69.1042 31.6583C69.0716 31.5162 69.0182 31.4171 68.9439 31.3611C68.8742 31.3052 68.7697 31.2772 68.6304 31.2772C68.3053 31.2728 67.9709 31.3331 67.6272 31.458C67.2881 31.583 66.9723 31.7811 66.6796 32.0524V36.3809C66.6796 36.4972 66.7122 36.5898 66.7772 36.6587C66.8468 36.7233 66.9444 36.7621 67.0698 36.775L68.4771 36.9171Z" fill="#001768"/>
<path d="M72.3754 35.7284V31.1479L71.1701 31.0058V30.3921L72.0549 30.2822C72.1803 30.265 72.2755 30.2263 72.3405 30.166C72.4056 30.1057 72.4543 30.0217 72.4869 29.914L72.9815 28.0146H73.8454L73.8663 30.2112H76.472V31.0963H73.8733V35.2697C73.8733 35.8296 73.9755 36.2043 74.1798 36.3938C74.3888 36.5833 74.6698 36.6781 75.0228 36.6781C75.3154 36.6781 75.5848 36.6286 75.831 36.5295C76.0818 36.4304 76.2978 36.2883 76.4789 36.1031L76.9109 36.4714C76.7019 36.8719 76.3791 37.1777 75.9425 37.3887C75.5105 37.5955 75.0321 37.6988 74.5073 37.6988C74.224 37.6988 73.9522 37.6687 73.6921 37.6084C73.432 37.5481 73.2045 37.4447 73.0094 37.2983C72.8189 37.1475 72.6657 36.9451 72.5496 36.691C72.4334 36.4369 72.3754 36.116 72.3754 35.7284Z" fill="#001768"/>
<path d="M77.8986 33.9066C77.8986 33.2304 77.9985 32.6446 78.1982 32.1493C78.4025 31.654 78.6766 31.2492 79.0203 30.9348C79.364 30.6203 79.7681 30.3878 80.2325 30.237C80.7017 30.0863 81.1986 30.0109 81.7235 30.0109C82.3412 30.0109 82.8754 30.1035 83.3259 30.2887C83.7811 30.4696 84.1526 30.7259 84.4406 31.0575C84.7332 31.3848 84.9492 31.7854 85.0885 32.2591C85.2279 32.7286 85.2975 33.2497 85.2975 33.8226C85.2975 34.4988 85.1954 35.0845 84.991 35.5798C84.7913 36.0708 84.5196 36.4735 84.1759 36.7879C83.8322 37.1023 83.4257 37.3349 82.9566 37.4856C82.4875 37.6364 81.9905 37.7118 81.4657 37.7118C80.848 37.7118 80.3115 37.6213 79.8563 37.4404C79.4058 37.2552 79.0365 36.999 78.7486 36.6716C78.4606 36.34 78.247 35.9394 78.1076 35.47C77.9683 34.9962 77.8986 34.4751 77.8986 33.9066ZM83.6464 33.9518C83.6464 33.4651 83.6115 33.0236 83.5419 32.6274C83.4768 32.2311 83.363 31.8952 83.2005 31.6196C83.0379 31.3396 82.8219 31.1243 82.5525 30.9735C82.2832 30.8228 81.9464 30.7474 81.5423 30.7474C80.8642 30.7474 80.3603 30.9864 80.0305 31.4645C79.7054 31.9426 79.5428 32.7114 79.5428 33.7709C79.5428 34.2533 79.5753 34.6926 79.6404 35.0888C79.71 35.4851 79.8238 35.8232 79.9817 36.1031C80.1443 36.3787 80.3603 36.5941 80.6297 36.7491C80.9037 36.8999 81.2451 36.9753 81.6538 36.9753C82.3273 36.9753 82.8266 36.7362 83.1517 36.2582C83.4815 35.7758 83.6464 35.007 83.6464 33.9518ZM80.9362 29.4165L80.4764 28.9579L83.0054 26.1799L84.0226 27.0003C83.8786 27.1726 83.6905 27.3643 83.4583 27.5753C83.226 27.7864 82.9706 27.9996 82.6919 28.2149C82.4179 28.4259 82.1276 28.637 81.821 28.848C81.5191 29.0548 81.2242 29.2443 80.9362 29.4165Z" fill="#001768"/>
<path d="M91.2848 36.9171V37.5567H86.7563V36.8977L87.6132 36.775C87.734 36.7578 87.8269 36.7168 87.8919 36.6522C87.9615 36.5833 87.9964 36.4929 87.9964 36.3809V31.5937C87.9964 31.4645 87.9662 31.3633 87.9058 31.2901C87.8501 31.2169 87.7549 31.1716 87.6202 31.1544L86.6587 31.0252V30.3921C87.0257 30.2887 87.4228 30.2069 87.8501 30.1466C88.2774 30.0863 88.6722 30.054 89.0345 30.0497L89.2713 30.2564L89.4316 31.4387C89.5756 31.2535 89.7474 31.0747 89.9471 30.9024C90.1469 30.7302 90.3605 30.5794 90.5881 30.4502C90.8157 30.3167 91.0549 30.2112 91.3057 30.1337C91.5612 30.0518 91.8143 30.0109 92.0651 30.0109C92.2091 30.0109 92.374 30.026 92.5598 30.0561C92.7455 30.0863 92.8965 30.1293 93.0126 30.1853C93.0451 30.5471 93.0451 30.9563 93.0126 31.4128C92.9847 31.8694 92.929 32.285 92.8454 32.6597H92.1139L91.9118 31.6583C91.8793 31.5162 91.8259 31.4171 91.7516 31.3611C91.6819 31.3052 91.5774 31.2772 91.4381 31.2772C91.1129 31.2728 90.7785 31.3331 90.4348 31.458C90.0958 31.583 89.7799 31.7811 89.4873 32.0524V36.3809C89.4873 36.4972 89.5198 36.5898 89.5849 36.6587C89.6545 36.7233 89.7521 36.7621 89.8775 36.775L91.2848 36.9171Z" fill="#001768"/>
<path d="M96.9527 30.2564V36.368C96.9527 36.4843 96.9852 36.5769 97.0502 36.6458C97.1152 36.7147 97.2081 36.7578 97.3289 36.775L98.1858 36.8977V37.5567H94.2216V36.8977L95.0786 36.775C95.1993 36.7578 95.2922 36.7147 95.3572 36.6458C95.4269 36.5769 95.4617 36.4864 95.4617 36.3744V31.5614C95.4617 31.4451 95.4292 31.3525 95.3642 31.2836C95.3038 31.2147 95.2132 31.1716 95.0925 31.1544L94.1241 31.0252V30.3921C94.5235 30.2801 94.9578 30.1983 95.4269 30.1466C95.896 30.0906 96.3303 30.0583 96.7297 30.0497L96.9527 30.2564ZM97.0641 28.0469C97.0641 28.3226 96.9689 28.5487 96.7785 28.7253C96.5881 28.8976 96.3396 28.9837 96.033 28.9837C95.7265 28.9837 95.478 28.8976 95.2876 28.7253C95.0971 28.5487 95.0019 28.3226 95.0019 28.0469C95.0019 27.7756 95.0971 27.5538 95.2876 27.3815C95.478 27.2092 95.7265 27.1231 96.033 27.1231C96.3396 27.1231 96.5881 27.2092 96.7785 27.3815C96.9689 27.5538 97.0641 27.7756 97.0641 28.0469Z" fill="#001768"/>
<path d="M99.4527 33.9066C99.4527 33.2304 99.5526 32.6446 99.7523 32.1493C99.9566 31.654 100.231 31.2492 100.574 30.9348C100.918 30.6203 101.322 30.3878 101.787 30.237C102.256 30.0863 102.753 30.0109 103.278 30.0109C103.895 30.0109 104.429 30.1035 104.88 30.2887C105.335 30.4696 105.707 30.7259 105.995 31.0575C106.287 31.3848 106.503 31.7854 106.643 32.2591C106.782 32.7286 106.852 33.2497 106.852 33.8226C106.852 34.4988 106.749 35.0845 106.545 35.5798C106.345 36.0708 106.074 36.4735 105.73 36.7879C105.386 37.1023 104.98 37.3349 104.511 37.4856C104.042 37.6364 103.545 37.7118 103.02 37.7118C102.402 37.7118 101.866 37.6213 101.41 37.4404C100.96 37.2552 100.591 36.999 100.303 36.6716C100.015 36.34 99.801 35.9394 99.6617 35.47C99.5224 34.9962 99.4527 34.4751 99.4527 33.9066ZM105.2 33.9518C105.2 33.4651 105.166 33.0236 105.096 32.6274C105.031 32.2311 104.917 31.8952 104.755 31.6196C104.592 31.3396 104.376 31.1243 104.107 30.9735C103.837 30.8228 103.501 30.7474 103.096 30.7474C102.418 30.7474 101.914 30.9864 101.585 31.4645C101.259 31.9426 101.097 32.7114 101.097 33.7709C101.097 34.2533 101.129 34.6926 101.194 35.0888C101.264 35.4851 101.378 35.8232 101.536 36.1031C101.698 36.3787 101.914 36.5941 102.184 36.7491C102.458 36.8999 102.799 36.9753 103.208 36.9753C103.881 36.9753 104.381 36.7362 104.706 36.2582C105.036 35.7758 105.2 35.007 105.2 33.9518Z" fill="#001768"/>
<path d="M152.194 106.083C152.528 106.083 152.867 106.024 153.211 105.908C153.555 105.788 153.847 105.635 154.089 105.449V103.725L152.758 103.834C152.196 103.877 151.764 103.996 151.462 104.19C151.165 104.384 151.016 104.679 151.016 105.075C151.016 105.394 151.111 105.641 151.302 105.818C151.497 105.994 151.794 106.083 152.194 106.083ZM155.412 106.955C155.078 106.955 154.804 106.877 154.59 106.722C154.377 106.563 154.228 106.332 154.144 106.031C153.852 106.324 153.487 106.559 153.051 106.735C152.614 106.907 152.147 106.994 151.65 106.994C151.334 106.994 151.039 106.955 150.765 106.877C150.491 106.8 150.255 106.688 150.055 106.541C149.86 106.391 149.704 106.205 149.588 105.986C149.477 105.762 149.421 105.508 149.421 105.223C149.421 104.849 149.514 104.534 149.699 104.28C149.885 104.026 150.124 103.821 150.417 103.666C150.714 103.511 151.044 103.395 151.406 103.318C151.773 103.24 152.133 103.188 152.486 103.162L154.089 103.04V102.168C154.089 101.504 153.945 101.037 153.657 100.766C153.373 100.494 152.939 100.359 152.354 100.359C151.913 100.359 151.495 100.428 151.1 100.565C150.71 100.699 150.347 100.91 150.013 101.199L149.658 100.869C149.746 100.624 149.89 100.406 150.09 100.217C150.289 100.023 150.524 99.8612 150.793 99.732C151.067 99.6028 151.374 99.5059 151.713 99.4413C152.052 99.3724 152.405 99.3379 152.772 99.3379C153.696 99.3379 154.391 99.5554 154.855 99.9904C155.32 100.421 155.552 101.082 155.552 101.974V105.63C155.552 105.768 155.584 105.869 155.649 105.934C155.719 105.994 155.819 106.031 155.949 106.044L156.75 106.108V106.722C156.634 106.761 156.437 106.808 156.158 106.864C155.884 106.925 155.635 106.955 155.412 106.955Z" fill="#001768"/>
<path d="M162.357 106.205V106.845H157.829V106.186L158.686 106.063C158.806 106.046 158.899 106.005 158.964 105.94C159.034 105.872 159.069 105.781 159.069 105.669V100.882C159.069 100.753 159.039 100.652 158.978 100.578C158.922 100.505 158.827 100.46 158.693 100.443L157.731 100.313V99.6803C158.098 99.577 158.495 99.4951 158.922 99.4348C159.35 99.3745 159.745 99.3422 160.107 99.3379L160.344 99.5446L160.504 100.727C160.648 100.542 160.82 100.363 161.02 100.191C161.219 100.018 161.433 99.8677 161.66 99.7385C161.888 99.6049 162.127 99.4994 162.378 99.4219C162.634 99.3401 162.887 99.2991 163.137 99.2991C163.281 99.2991 163.446 99.3142 163.632 99.3444C163.818 99.3745 163.969 99.4176 164.085 99.4736C164.117 99.8354 164.117 100.245 164.085 100.701C164.057 101.158 164.001 101.573 163.918 101.948H163.186L162.984 100.947C162.952 100.804 162.898 100.705 162.824 100.649C162.754 100.593 162.65 100.565 162.51 100.565C162.185 100.561 161.851 100.621 161.507 100.746C161.168 100.871 160.852 101.069 160.56 101.341V105.669C160.56 105.785 160.592 105.878 160.657 105.947C160.727 106.012 160.824 106.05 160.95 106.063L162.357 106.205Z" fill="#001768"/>
<path d="M168.025 99.5446V105.656C168.025 105.773 168.058 105.865 168.123 105.934C168.188 106.003 168.281 106.046 168.401 106.063L169.258 106.186V106.845H165.294V106.186L166.151 106.063C166.272 106.046 166.365 106.003 166.43 105.934C166.499 105.865 166.534 105.775 166.534 105.663V100.85C166.534 100.733 166.502 100.641 166.437 100.572C166.376 100.503 166.286 100.46 166.165 100.443L165.196 100.313V99.6803C165.596 99.5683 166.03 99.4865 166.499 99.4348C166.968 99.3788 167.403 99.3465 167.802 99.3379L168.025 99.5446ZM168.137 97.3352C168.137 97.6108 168.041 97.8369 167.851 98.0135C167.66 98.1858 167.412 98.2719 167.105 98.2719C166.799 98.2719 166.55 98.1858 166.36 98.0135C166.17 97.8369 166.074 97.6108 166.074 97.3352C166.074 97.0638 166.17 96.842 166.36 96.6697C166.55 96.4975 166.799 96.4113 167.105 96.4113C167.412 96.4113 167.66 96.4975 167.851 96.6697C168.041 96.842 168.137 97.0638 168.137 97.3352Z" fill="#001768"/>
<path d="M174.287 106.186V106.845H170.421V106.186L171.278 106.063C171.398 106.046 171.491 106.003 171.556 105.934C171.626 105.865 171.661 105.775 171.661 105.663V100.85C171.661 100.733 171.628 100.641 171.563 100.572C171.503 100.503 171.412 100.46 171.291 100.443L170.323 100.313V99.6803C170.699 99.5726 171.101 99.4908 171.528 99.4348C171.96 99.3745 172.364 99.3422 172.741 99.3379L172.984 99.564L173.089 100.359C173.474 99.9796 173.909 99.7126 174.392 99.5576C174.875 99.4025 175.365 99.325 175.862 99.325C176.786 99.325 177.415 99.5748 177.75 100.074C178.084 100.574 178.251 101.27 178.251 102.161V105.669C178.251 105.781 178.284 105.872 178.349 105.94C178.419 106.005 178.512 106.046 178.628 106.063L179.485 106.186V106.845H175.625V106.186L176.384 106.063C176.491 106.046 176.579 106.007 176.649 105.947C176.723 105.882 176.761 105.79 176.761 105.669V102.413C176.761 101.702 176.656 101.173 176.447 100.824C176.238 100.471 175.832 100.294 175.228 100.294C174.861 100.294 174.499 100.346 174.141 100.449C173.783 100.552 173.454 100.71 173.152 100.921V105.663C173.152 105.775 173.184 105.865 173.249 105.934C173.314 105.999 173.405 106.042 173.521 106.063L174.287 106.186Z" fill="#001768"/>
<path d="M184.226 106.186V106.845H180.366V106.186L181.223 106.063C181.344 106.046 181.437 106.005 181.502 105.94C181.567 105.876 181.6 105.785 181.6 105.669V96.702C181.6 96.5901 181.565 96.5018 181.495 96.4372C181.43 96.3726 181.339 96.3317 181.223 96.3144L180.199 96.1723V95.5844C180.394 95.5284 180.606 95.4789 180.833 95.4358C181.065 95.3927 181.298 95.3583 181.53 95.3324C181.767 95.3023 181.999 95.2786 182.227 95.2614C182.459 95.2441 182.672 95.2334 182.868 95.2291L183.09 95.4423V100.313C183.471 99.9517 183.899 99.6975 184.372 99.5511C184.846 99.4004 185.325 99.325 185.808 99.325C186.732 99.325 187.361 99.5748 187.696 100.074C188.03 100.574 188.197 101.27 188.197 102.161V105.669C188.197 105.781 188.23 105.872 188.295 105.94C188.364 106.005 188.46 106.046 188.58 106.063L189.437 106.186V106.845H185.571V106.186L186.33 106.063C186.442 106.046 186.532 106.007 186.602 105.947C186.672 105.882 186.706 105.79 186.706 105.669V102.413C186.706 101.702 186.602 101.173 186.393 100.824C186.184 100.471 185.78 100.294 185.181 100.294C184.814 100.294 184.449 100.346 184.087 100.449C183.729 100.552 183.397 100.712 183.09 100.927V105.669C183.09 105.785 183.123 105.876 183.188 105.94C183.253 106.001 183.346 106.042 183.467 106.063L184.226 106.186Z" fill="#001768"/>
<path d="M190.601 103.195C190.601 102.519 190.701 101.933 190.901 101.438C191.105 100.942 191.379 100.537 191.723 100.223C192.066 99.9086 192.471 99.676 192.935 99.5253C193.404 99.3745 193.901 99.2991 194.426 99.2991C195.044 99.2991 195.578 99.3918 196.028 99.577C196.484 99.7578 196.855 100.014 197.143 100.346C197.436 100.673 197.652 101.074 197.791 101.547C197.93 102.017 198 102.538 198 103.111C198 103.787 197.898 104.373 197.693 104.868C197.494 105.359 197.222 105.762 196.878 106.076C196.535 106.391 196.128 106.623 195.659 106.774C195.19 106.925 194.693 107 194.168 107C193.55 107 193.014 106.91 192.559 106.729C192.108 106.543 191.739 106.287 191.451 105.96C191.163 105.628 190.949 105.228 190.81 104.758C190.671 104.284 190.601 103.763 190.601 103.195ZM196.349 103.24C196.349 102.753 196.314 102.312 196.244 101.916C196.179 101.519 196.066 101.183 195.903 100.908C195.74 100.628 195.524 100.412 195.255 100.262C194.986 100.111 194.649 100.036 194.245 100.036C193.567 100.036 193.063 100.275 192.733 100.753C192.408 101.231 192.245 102 192.245 103.059C192.245 103.542 192.278 103.981 192.343 104.377C192.412 104.773 192.526 105.111 192.684 105.391C192.847 105.667 193.063 105.882 193.332 106.037C193.606 106.188 193.948 106.264 194.356 106.264C195.03 106.264 195.529 106.024 195.854 105.546C196.184 105.064 196.349 104.295 196.349 103.24Z" fill="#001768"/>
</svg>
