<svg width="48" height="48" viewBox="0 0 48 48" fill="none" xmlns="http://www.w3.org/2000/svg">
<g opacity="0.3">
<path d="M45 24C45 35.598 35.598 45 24 45C12.402 45 3 35.598 3 24C3 12.402 12.402 3 24 3C35.598 3 45 12.402 45 24Z" fill="#15479E"/>
<path d="M8.65877 34.0144L14.4457 39.6576L6.66514 41.8476L8.65877 34.0144Z" fill="#15479E"/>
</g>
<path d="M2 46L5.10759 34.7012C3.18999 31.3938 2.18237 27.6447 2.18421 23.8002C2.18973 11.7808 12.0172 2 24.0921 2C29.9518 2.00183 35.4522 4.27333 39.5895 8.39467C43.725 12.516 46.0018 17.994 46 23.8203C45.9945 35.8415 36.167 45.6223 24.0921 45.6223C20.4264 45.6205 16.814 44.7057 13.6143 42.9677L2 46ZM14.1522 39.0205C17.2396 40.8447 20.1869 41.9373 24.0847 41.9392C34.1204 41.9392 42.2956 33.8102 42.3011 23.8167C42.3048 13.803 34.1683 5.685 24.0995 5.68133C14.0564 5.68133 5.8868 13.8103 5.88311 23.802C5.88127 27.8812 7.08231 30.9355 9.09939 34.131L7.25915 40.819L14.1522 39.0205ZM35.128 29.0032C34.9917 28.7758 34.627 28.6402 34.078 28.367C33.5309 28.0938 30.8397 26.7757 30.3368 26.5942C29.8357 26.4127 29.471 26.321 29.1044 26.8673C28.7397 27.4118 27.6897 28.6402 27.371 29.0032C27.0523 29.3662 26.7318 29.412 26.1847 29.1388C25.6376 28.8657 23.8729 28.2918 21.7821 26.4347C20.1556 24.99 19.0558 23.2062 18.7372 22.6598C18.4185 22.1153 18.704 21.8202 18.9766 21.5488C19.2235 21.305 19.5237 20.9127 19.7982 20.5937C20.0764 20.2783 20.1666 20.051 20.3508 19.6862C20.5332 19.3232 20.4429 19.0042 20.3048 18.731C20.1666 18.4597 19.0724 15.7775 18.6174 14.6867C18.1716 13.6252 17.7203 13.7682 17.3851 13.7517L16.3351 13.7333C15.9704 13.7333 15.3772 13.869 14.8762 14.4153C14.3751 14.9617 12.9604 16.278 12.9604 18.9602C12.9604 21.6423 14.9222 24.2328 15.1948 24.5958C15.4693 24.9588 19.054 30.4625 24.5453 32.822C25.8513 33.383 26.8718 33.7185 27.6657 33.9697C28.9773 34.384 30.171 34.3253 31.1141 34.186C32.166 34.0302 34.3525 32.8678 34.8093 31.5955C35.2662 30.3213 35.2662 29.2305 35.128 29.0032Z" fill="#15479E"/>
</svg>
