<svg width="80" height="80" viewBox="0 0 80 80" fill="none" xmlns="http://www.w3.org/2000/svg">
<path d="M40 3.33334L10 16.6667V36.6667C10 55.1667 22.8 72.4667 40 76.6667C57.2 72.4667 70 55.1667 70 36.6667V16.6667L40 3.33334ZM63.3333 36.6667C63.3333 51.7333 53.4 65.6333 40 69.7667C26.6 65.6333 16.6667 51.7333 16.6667 36.6667V21L40 10.6333L63.3333 21V36.6667ZM24.7 38.6333L20 43.3333L33.3333 56.6667L60 30L55.3 25.2667L33.3333 47.2333L24.7 38.6333Z" fill="#001768"/>
<path opacity="0.3" d="M16.6667 21V36.6667C16.6667 51.7333 26.6 65.6333 40 69.7667C53.4 65.6667 63.3333 51.7333 63.3333 36.6667V21L40 10.6333L16.6667 21ZM60 30L33.3333 56.6667L20 43.3333L24.7 38.6333L33.3333 47.2333L55.3 25.2667L60 30Z" fill="#001768"/>
</svg>
