<svg width="126" height="80" viewBox="0 0 126 80" fill="none" xmlns="http://www.w3.org/2000/svg">
<path opacity="0.3" d="M10 56.6667H70V16.6667H10V56.6667ZM26.6667 26.6667H63.3333V33.3333H26.6667V26.6667ZM26.6667 40H63.3333V46.6667H26.6667V40ZM16.6667 26.6667H23.3333V33.3333H16.6667V26.6667ZM16.6667 40H23.3333V46.6667H16.6667V40Z" fill="#15479E"/>
<path d="M26.6667 40H63.3333V46.6667H26.6667V40ZM26.6667 26.6667H63.3333V33.3333H26.6667V26.6667ZM70 10H10C6.33334 10 3.33334 13 3.33334 16.6667V56.6667C3.33334 60.3333 6.33334 63.3333 10 63.3333H26.6667V70H53.3333V63.3333H70C73.6667 63.3333 76.6667 60.3333 76.6667 56.6667V16.6667C76.6667 13 73.6667 10 70 10ZM70 56.6667H10V16.6667H70V56.6667ZM16.6667 40H23.3333V46.6667H16.6667V40ZM16.6667 26.6667H23.3333V33.3333H16.6667V26.6667Z" fill="#15479E"/>
<path d="M79.6667 25.6667H61V68.3333H93V39H79.6667V25.6667ZM87.6667 63H66.3333V57.6667H87.6667V63ZM87.6667 47V52.3333H66.3333V47H87.6667Z" fill="#AEB7D2"/>
<path d="M66.3333 57.6667H87.6667V63H66.3333V57.6667ZM66.3333 47H87.6667V52.3333H66.3333V47ZM82.3333 20.3333H61C58.0667 20.3333 55.6667 22.7333 55.6667 25.6667V68.3334C55.6667 71.2667 58.04 73.6667 60.9733 73.6667H93C95.9333 73.6667 98.3333 71.2667 98.3333 68.3334V36.3333L82.3333 20.3333ZM93 68.3334H61V25.6667H79.6667V39H93V68.3334Z" fill="#15479E"/>
<path opacity="0.3" d="M118 65.3333H102V68H118V65.3333Z" fill="#15479E"/>
<path opacity="0.3" d="M110 49.3333C107.787 49.3333 106 51.12 106 53.3333L110 58.6666L114 53.3333C114 51.12 112.213 49.3333 110 49.3333Z" fill="#680000"/>
<path d="M110 46.6667C106.32 46.6667 103.333 49.6533 103.333 53.3333L110 62.6667L116.667 53.3333C116.667 49.6533 113.68 46.6667 110 46.6667ZM110 58.6667L106 53.3333C106 51.12 107.787 49.3333 110 49.3333C112.213 49.3333 114 51.12 114 53.3333L110 58.6667Z" fill="#680000"/>
<path d="M118 62.6667H110H102C100.533 62.6667 99.3333 63.8667 99.3333 65.3333V73.3333H120.667V65.3333C120.667 63.8667 119.467 62.6667 118 62.6667ZM118 68H102V65.3333H118V68Z" fill="#15479E"/>
</svg>
