<svg width="118" height="91" viewBox="0 0 118 91" fill="none" xmlns="http://www.w3.org/2000/svg">
<path opacity="0.3" d="M43.3333 13.3333H20V66.6667H60V30H43.3333V13.3333ZM53.3333 60H26.6667V53.3333H53.3333V60ZM53.3333 40V46.6667H26.6667V40H53.3333Z" fill="#15479E"/>
<path d="M26.6667 53.3333H53.3333V60H26.6667V53.3333ZM26.6667 40H53.3333V46.6667H26.6667V40ZM46.6667 6.66666H20C16.3333 6.66666 13.3333 9.66666 13.3333 13.3333V66.6667C13.3333 70.3333 16.3 73.3333 19.9667 73.3333H60C63.6667 73.3333 66.6667 70.3333 66.6667 66.6667V26.6667L46.6667 6.66666ZM60 66.6667H20V13.3333H43.3333V30H60V66.6667Z" fill="#15479E"/>
<path d="M67.3333 24.3333H44V77.6667H84V41H67.3333V24.3333ZM77.3333 71H50.6667V64.3333H77.3333V71ZM77.3333 51V57.6667H50.6667V51H77.3333Z" fill="#AEB7D2"/>
<path d="M50.6667 64.3333H77.3333V71H50.6667V64.3333ZM50.6667 51H77.3333V57.6667H50.6667V51ZM70.6667 17.6667H44C40.3333 17.6667 37.3333 20.6667 37.3333 24.3333V77.6667C37.3333 81.3333 40.3 84.3333 43.9667 84.3333H84C87.6667 84.3333 90.6667 81.3333 90.6667 77.6667V37.6667L70.6667 17.6667ZM84 77.6667H44V24.3333H67.3333V41H84V77.6667Z" fill="#15479E"/>
<path opacity="0.3" d="M110 76.3333H94V79H110V76.3333Z" fill="#15479E"/>
<path opacity="0.3" d="M102 60.3333C99.7867 60.3333 98 62.12 98 64.3333L102 69.6666L106 64.3333C106 62.12 104.213 60.3333 102 60.3333Z" fill="#680000"/>
<path d="M102 57.6667C98.32 57.6667 95.3333 60.6533 95.3333 64.3333L102 73.6667L108.667 64.3333C108.667 60.6533 105.68 57.6667 102 57.6667ZM102 69.6667L98 64.3333C98 62.12 99.7867 60.3333 102 60.3333C104.213 60.3333 106 62.12 106 64.3333L102 69.6667Z" fill="#680000"/>
<path d="M110 73.6667H102H94C92.5333 73.6667 91.3333 74.8667 91.3333 76.3333V84.3333H112.667V76.3333C112.667 74.8667 111.467 73.6667 110 73.6667ZM110 79H94V76.3333H110V79Z" fill="#15479E"/>
</svg>
