<svg width="48" height="48" viewBox="0 0 48 48" fill="none" xmlns="http://www.w3.org/2000/svg">
<path d="M16.216 4.41368C16.216 4.38047 15.762 3.90021 15.2071 3.34649C14.6521 2.79278 14.177 2.33972 14.1512 2.33972C14.0835 2.33972 12.0927 4.34849 12.0927 4.41678C12.0927 4.44829 12.3141 4.57427 12.5847 4.69668C13.0109 4.88944 13.2209 4.91927 14.1543 4.91927C15.0878 4.91927 15.2978 4.88944 15.724 4.69668C15.9946 4.57427 16.216 4.44689 16.216 4.41368Z" fill="#B9C8E2"/>
<path fill-rule="evenodd" clip-rule="evenodd" d="M32.1508 6.25332C30.5728 5.34354 27.1421 3.68953 26.5034 3.53072C25.707 3.33271 24.7241 3.27277 24.0223 3.37951C23.7028 3.4281 22.7751 3.71457 21.9606 4.01605C21.1463 4.31744 20.2571 4.64227 19.985 4.73786L19.49 4.91158L23.0073 8.43591L24.7424 8.99159C25.6966 9.29729 27.2332 9.78825 28.157 10.0827C30.0594 10.6891 30.2728 10.8262 30.2728 11.4414C30.2728 11.9229 29.8767 12.3765 29.4561 12.3765C29.3083 12.3765 27.2604 11.7645 24.9052 11.0164C20.4864 9.61284 20.09 9.52288 19.468 9.783C18.7936 10.0651 18.2854 10.9974 18.4186 11.7082C18.5119 12.2058 18.6941 12.5023 19.1579 12.9109C19.5976 13.2983 19.8679 13.4001 25.5403 15.3125L27.5083 15.9761L28.258 16.7326C29.5158 18.0017 30.8195 18.5233 32.5721 18.4584C33.4715 18.4251 33.5741 18.3999 34.318 18.0309C35.2102 17.5884 36.1438 16.7907 36.6777 16.0148L37.0222 15.5141L36.9732 8.02412L36.2203 7.91643C34.9503 7.73483 34.1606 7.41206 32.1508 6.25332ZM31.8682 12.8511C31.7228 12.4997 31.8042 12.1483 32.0997 11.8525C32.2712 11.6809 32.427 11.6261 32.7436 11.6261C33.0948 11.6261 33.1997 11.672 33.4038 11.9147C33.7432 12.3185 33.7315 12.7748 33.3725 13.1342C32.8908 13.6163 32.1252 13.4722 31.8682 12.8511Z" fill="#B9C8E2"/>
<path d="M46.1101 15.003V5.05997H42.4553V15.003H46.1101Z" fill="#B9C8E2"/>
<path d="M13.924 6.82026C12.7774 6.77139 11.989 6.55743 11.2197 6.08664C10.9714 5.93468 10.7387 5.81039 10.7026 5.81039C10.6666 5.81039 10.1683 6.28531 9.59544 6.86566L8.55374 7.92093L8.86261 8.42502C9.41223 9.32177 9.60969 10.1091 9.60659 11.3916C9.60416 12.3699 9.57061 12.6122 9.3501 13.2425C9.21057 13.6413 8.97048 14.169 8.81651 14.415L8.53678 14.8623L18.0549 24.3945L18.7519 24.0203C20.5214 23.0708 22.417 23.0472 24.2284 23.9522L25.0718 24.3735L27.1506 22.3054L26.7404 21.4917C26.2019 20.4234 26.0198 19.548 26.0923 18.3773L26.1477 17.4838L24.6695 16.9937C23.0775 16.4661 22.9633 16.4413 22.9633 16.6237C22.9633 16.9512 22.2607 18.1616 21.7691 18.681C19.5704 21.0043 16.0992 21.0015 13.9478 18.6749C13.0135 17.6643 12.5612 16.4917 12.5612 15.0795C12.5612 13.6102 13.0937 12.323 14.1311 11.2846C14.7288 10.6863 15.8614 10.0367 16.5551 9.89434C16.7689 9.85044 16.9379 9.70354 17.1847 9.34663C17.6869 8.62051 18.1157 8.32203 19.3806 7.81803C19.5805 7.7384 19.5352 7.67536 18.6185 6.76107L17.6437 5.78882L17.047 6.12228C16.0726 6.66671 15.1516 6.87251 13.924 6.82026Z" fill="#B9C8E2"/>
<path d="M40.5811 15.003V6.84221H38.8943V15.003H40.5811Z" fill="#B9C8E2"/>
<path d="M7.35113 13.2384C7.79336 12.3823 7.8926 11.1603 7.5976 10.2042C7.45162 9.7311 7.37988 9.46702 7.24069 9.42457C7.06607 9.37132 6.78528 9.66688 6.11854 10.3362L5.06419 11.3946L7.20157 13.5279L7.35113 13.2384Z" fill="#B9C8E2"/>
<path d="M18.512 14.7744C17.5828 14.2275 16.7635 13.1365 16.6232 12.2593C16.5923 12.0659 16.5406 11.9094 16.5086 11.9116C16.2978 11.9267 15.7205 12.3389 15.3397 12.7465C14.6383 13.4971 14.4823 13.9246 14.4823 15.0968C14.4823 16.0403 14.4958 16.1066 14.8031 16.6739C15.2008 17.4082 15.8713 18.0234 16.5719 18.297C17.3129 18.5863 18.4007 18.5857 19.1442 18.2954C19.8309 18.0273 20.6009 17.3267 20.9233 16.6765C21.1113 16.2975 21.221 16.0972 21.1709 15.9523C21.1091 15.7737 20.8047 15.6792 20.1049 15.4378C19.4863 15.2244 18.7695 14.9259 18.512 14.7744Z" fill="#B9C8E2"/>
<path d="M29.23 19.703C29.069 19.6467 28.7309 19.4738 28.4789 19.3186C28.227 19.1635 28.0005 19.0365 27.9754 19.0365C27.8475 19.0365 28.0927 20.0152 28.3577 20.5628L28.529 20.9167L29.026 20.4254C29.2994 20.1551 29.5231 19.905 29.5231 19.8696C29.5231 19.8342 29.3912 19.7592 29.23 19.703Z" fill="#B9C8E2"/>
<path d="M23.5643 25.6977C23.5112 25.6445 23.2339 25.5187 22.9482 25.4183C22.2485 25.1721 21.3499 25.1097 20.7142 25.263C20.1217 25.4059 19.4959 25.6661 19.4959 25.7696C19.4959 25.8085 19.9601 26.3034 20.5273 26.8695L21.5587 27.8986L22.6098 26.8465C23.3313 26.1243 23.6306 25.764 23.5643 25.6977Z" fill="#B9C8E2"/>
<path fill-rule="evenodd" clip-rule="evenodd" d="M18.2449 31.6041C17.8248 31.3969 17.1859 31.1655 16.8251 31.0899C15.5843 30.8301 14.4368 30.963 13.4959 31.4756C12.7816 31.8647 11.9628 32.5809 11.4484 33.2664L10.9699 33.9041L10.9681 41.4259L11.7413 41.5349C12.9116 41.6999 13.7799 42.035 15.3257 42.9181C17.2802 44.0348 20.7327 45.7263 21.4639 45.9254C21.8836 46.0398 22.4081 46.0909 23.1507 46.09C24.0706 46.0887 24.3243 46.0535 24.8843 45.8488C25.2451 45.7169 28.8085 44.4376 32.803 43.0058C38.0649 41.1197 40.1819 40.3196 40.4874 40.1017C41.4366 39.4245 41.7208 38.585 41.3071 37.6804C41.0286 37.0714 40.6743 36.7955 40.0018 36.6635C39.9184 36.6472 39.8541 36.6317 39.7889 36.6215C39.4082 36.5622 38.9989 36.686 34.6077 37.8969L31.3988 38.7818L31.2545 39.2137C30.7553 40.7077 29.3935 41.6748 27.7894 41.6745C27.0818 41.6744 26.7899 41.5949 22.5884 40.2563C18.6281 38.9946 17.8862 38.7616 17.7473 38.3329C17.7141 38.2303 17.7154 38.1166 17.7154 37.975C17.7154 37.5545 17.9985 37.1904 18.405 37.0883C18.5721 37.0463 19.9663 37.4493 23.1221 38.4517C27.0864 39.7109 27.7942 39.9425 28.3397 39.7388C28.4695 39.6903 28.59 39.6172 28.743 39.5275C29.2926 39.2051 29.6662 38.4437 29.5819 37.8175C29.5105 37.286 29.1431 36.7275 28.6302 36.3705C28.3971 36.2083 26.7817 35.6099 24.3082 34.7695L20.3583 33.4276L19.6835 32.7042C19.1429 32.1248 18.8568 31.906 18.2449 31.6041ZM15.4143 37.8509C14.5367 38.0157 13.9794 36.9257 14.6157 36.2888C14.9889 35.9152 15.4449 35.9143 15.8609 36.2864C16.1089 36.5081 16.1649 36.6282 16.1649 36.9377C16.1649 37.3986 15.8621 37.7668 15.4143 37.8509Z" fill="#B9C8E2"/>
<path d="M5.53284 44.363V34.42H1.87808V44.363H5.53284Z" fill="#B9C8E2"/>
<path d="M9.0939 42.6819V34.42H8.29444C7.74126 34.42 7.48102 34.4561 7.45 34.5372C7.42526 34.6018 7.41598 36.4484 7.42948 38.6411L7.45394 42.6276L9.0939 42.6819Z" fill="#B9C8E2"/>
<path fill-rule="evenodd" clip-rule="evenodd" d="M14.1599 0C13.995 0 13.832 0.049556 13.6832 0.147943C13.3485 0.36941 3.41046 10.2899 3.08687 10.7256C2.90526 10.9702 2.8152 11.2032 2.8152 11.4286C2.8152 11.7508 3.22238 12.1733 11.9761 20.9354L21.1369 30.1051H21.9751L31.7277 20.3497H32.5268C33.8263 20.3497 35.0347 19.9376 36.2135 19.0925C36.8043 18.6689 37.892 17.5907 38.1863 17.137L38.3536 16.879H42.7897C47.5537 16.879 47.604 16.8742 47.8508 16.3964C48.0497 16.0113 48.0497 4.0517 47.8508 3.66655C47.6119 3.2042 47.4581 3.18394 44.1898 3.18394H41.1539L40.8909 3.41019C40.6627 3.60661 40.6218 3.72133 40.5811 4.27785L40.5342 4.91927L37.5014 4.97077L37.2607 5.25705C37.1168 5.42824 37.02 5.65899 37.02 5.83093V6.11853L36.4812 6.06169C35.6418 5.97323 35.0041 5.7088 33.254 4.72341C31.1302 3.52753 28.2514 2.11309 27.3677 1.83141C26.3236 1.4986 25.0491 1.37028 24.0325 1.49569C23.1687 1.60234 22.8188 1.71068 19.8239 2.79963L18.0434 3.44705L16.4034 1.82465C15.5014 0.932409 14.6713 0.155541 14.5588 0.0985096C14.4291 0.032707 14.2939 0 14.1599 0ZM0 33.2079L0.0506981 45.7863L0.576609 46.239H6.91294L7.16006 45.9918C7.37522 45.7764 7.40708 45.6674 7.40708 45.1475V44.5506H8.81745C10.6215 44.5506 10.9681 44.399 10.9681 43.6099V43.3135L11.4601 43.3804C12.361 43.5029 13.0635 43.7892 14.576 44.65C16.5038 45.747 19.8333 47.3857 20.6311 47.6299C22.1505 48.0951 23.7948 48.1229 25.1702 47.7067C25.58 47.5827 28.0448 46.7138 30.6476 45.7757C33.2505 44.8376 36.5608 43.6474 38.004 43.1307C40.9069 42.0914 41.3288 41.8942 42.0419 41.2429C43.4679 39.9405 43.7709 38.2379 42.8711 36.5832C42.1703 35.2943 40.6319 34.5745 39.0581 34.7992C38.7361 34.8452 36.8731 35.3274 34.9183 35.8708C32.9633 36.4142 31.3528 36.8588 31.3393 36.8588C31.3257 36.8588 31.1788 36.6038 31.0128 36.2921C30.6702 35.6487 29.8339 34.8233 29.2262 34.5289C28.7959 34.3204 26.5847 33.5441 23.4583 32.5041L21.5637 31.8738L20.867 31.2005C19.4507 29.8316 17.9192 29.1955 15.8412 29.1132C14.9645 29.0784 14.6364 29.1051 14.0822 29.2557C12.6616 29.6419 11.1939 30.6205 10.1685 31.865L9.64773 32.497L0.550557 32.5908L0 33.2079Z" fill="#B9C8E2"/>
<path fill-rule="evenodd" clip-rule="evenodd" d="M13.6832 0.147943C13.3485 0.36941 3.41046 10.2899 3.08687 10.7256C2.90526 10.9702 2.8152 11.2032 2.8152 11.4286C2.8152 11.7508 3.22238 12.1733 11.9761 20.9354L21.1369 30.1051H21.556H21.9751L26.8514 25.2274L31.7277 20.3497H32.5268C33.8263 20.3497 35.0347 19.9376 36.2135 19.0925C36.8043 18.6689 37.892 17.5907 38.1863 17.137L38.3536 16.879H42.7897C47.5537 16.879 47.6039 16.8742 47.8508 16.3964C48.0497 16.0113 48.0497 4.0517 47.8508 3.66655C47.6119 3.2042 47.4581 3.18394 44.1898 3.18394H41.1539L40.8909 3.41019C40.6627 3.60661 40.6218 3.72133 40.5811 4.27785L40.5342 4.91927L39.0178 4.94497L37.5014 4.97077L37.2607 5.25705C37.1168 5.42824 37.02 5.65899 37.02 5.83093V6.11853L36.4812 6.06169C35.6418 5.97323 35.0041 5.7088 33.254 4.72341C31.1302 3.52753 28.2514 2.11309 27.3677 1.83141C26.3236 1.4986 25.0491 1.37028 24.0325 1.49569C23.1687 1.60234 22.8188 1.71068 19.8239 2.79963L18.0434 3.44705L16.4034 1.82465C15.5014 0.932409 14.6713 0.155541 14.5588 0.0985096C14.2694 -0.0482904 13.9528 -0.0303742 13.6832 0.147943ZM15.2071 3.34649C15.762 3.90021 16.216 4.38047 16.216 4.41368C16.216 4.44689 15.9946 4.57427 15.724 4.69668C15.2978 4.88944 15.0878 4.91927 14.1543 4.91927C13.2209 4.91927 13.0109 4.88944 12.5847 4.69668C12.3141 4.57427 12.0927 4.44829 12.0927 4.41677C12.0927 4.34849 14.0835 2.33972 14.1512 2.33972C14.177 2.33972 14.6521 2.79278 15.2071 3.34649ZM26.5034 3.53072C27.1421 3.68953 30.5728 5.34354 32.1508 6.25332C34.1606 7.41206 34.9503 7.73483 36.2203 7.91643L36.9732 8.02412L36.9977 11.7691L37.0222 15.5141L36.6777 16.0148C36.1438 16.7907 35.2102 17.5884 34.318 18.0309C33.5741 18.3999 33.4715 18.4251 32.5721 18.4584C30.8195 18.5233 29.5158 18.0017 28.258 16.7326L27.5083 15.9761L25.5403 15.3125C19.8679 13.4001 19.5976 13.2983 19.1579 12.9109C18.6941 12.5023 18.5119 12.2058 18.4186 11.7082C18.2854 10.9974 18.7936 10.0651 19.468 9.78299C20.09 9.52288 20.4864 9.61284 24.9052 11.0164C27.2604 11.7645 29.3083 12.3765 29.4561 12.3765C29.8767 12.3765 30.2728 11.9229 30.2728 11.4414C30.2728 10.8262 30.0594 10.6891 28.157 10.0827C27.2332 9.78825 25.6966 9.29729 24.7424 8.99159L23.0073 8.43591L21.2486 6.67374L19.49 4.91158L19.985 4.73786C20.2571 4.64227 21.1463 4.31744 21.9606 4.01605C22.7751 3.71457 23.7028 3.4281 24.0223 3.37951C24.7241 3.27277 25.707 3.33271 26.5034 3.53072ZM46.1101 10.0315V15.003H44.2827H42.4553V10.0315V5.05997H44.2827H46.1101V10.0315ZM11.2197 6.08664C11.989 6.55743 12.7774 6.77139 13.924 6.82026C15.1516 6.87251 16.0726 6.66671 17.047 6.12228L17.6437 5.78882L18.6185 6.76107C19.5352 7.67536 19.5805 7.73839 19.3806 7.81803C18.1157 8.32203 17.6869 8.62051 17.1847 9.34663C16.9379 9.70354 16.7689 9.85044 16.5551 9.89434C15.8614 10.0367 14.7288 10.6863 14.1311 11.2846C13.0937 12.323 12.5612 13.6102 12.5612 15.0795C12.5612 16.4917 13.0135 17.6643 13.9478 18.6749C16.0992 21.0015 19.5704 21.0043 21.7691 18.681C22.2607 18.1616 22.9633 16.9511 22.9633 16.6237C22.9633 16.4413 23.0775 16.4661 24.6695 16.9937L26.1477 17.4838L26.0923 18.3773C26.0198 19.548 26.2019 20.4234 26.7404 21.4917L27.1506 22.3054L26.1111 23.3394L25.0718 24.3735L24.2284 23.9521C22.417 23.0471 20.5214 23.0708 18.7519 24.0203L18.0549 24.3945L13.2958 19.6283L8.53678 14.8623L8.81651 14.415C8.97048 14.169 9.21057 13.6413 9.3501 13.2425C9.57061 12.6122 9.60416 12.3699 9.60659 11.3916C9.60969 10.1091 9.41223 9.32177 8.86261 8.42502L8.55374 7.92093L9.59544 6.86566C10.1683 6.28531 10.6666 5.81039 10.7026 5.81039C10.7387 5.81039 10.9714 5.93468 11.2197 6.08664ZM40.5811 10.9226V15.003H39.7377H38.8943V10.9226V6.84221H39.7377H40.5811V10.9226ZM7.5976 10.2042C7.8926 11.1603 7.79336 12.3823 7.35113 13.2384L7.20157 13.5279L6.13288 12.4612L5.06419 11.3946L6.11854 10.3362C7.31674 9.13332 7.26848 9.13764 7.5976 10.2042ZM32.0997 11.8525C31.8042 12.1483 31.7228 12.4997 31.8682 12.8511C32.1252 13.4722 32.8908 13.6163 33.3725 13.1342C33.7315 12.7748 33.7432 12.3185 33.4038 11.9147C33.1997 11.672 33.0948 11.6261 32.7436 11.6261C32.427 11.6261 32.2712 11.6809 32.0997 11.8525ZM16.6232 12.2593C16.7635 13.1365 17.5828 14.2275 18.512 14.7744C18.7695 14.9259 19.4863 15.2244 20.1049 15.4378C21.3725 15.8751 21.343 15.8303 20.9233 16.6765C20.6009 17.3267 19.8309 18.0273 19.1442 18.2954C18.4007 18.5856 17.3129 18.5863 16.5719 18.297C15.8713 18.0234 15.2008 17.4082 14.8031 16.6739C14.4958 16.1066 14.4823 16.0403 14.4823 15.0968C14.4823 13.9246 14.6383 13.4971 15.3397 12.7465C15.7205 12.3389 16.2978 11.9267 16.5086 11.9116C16.5406 11.9094 16.5923 12.0659 16.6232 12.2593ZM28.4789 19.3186C28.7309 19.4738 29.069 19.6467 29.23 19.703C29.3912 19.7592 29.5231 19.8342 29.5231 19.8696C29.5231 19.905 29.2994 20.1551 29.026 20.4254L28.529 20.9167L28.3577 20.5628C28.0927 20.0152 27.8475 19.0365 27.9754 19.0365C28.0005 19.0365 28.227 19.1635 28.4789 19.3186ZM22.9482 25.4183C23.2339 25.5187 23.5112 25.6445 23.5643 25.6977C23.6306 25.764 23.3313 26.1243 22.6098 26.8465L21.5587 27.8986L20.5273 26.8695C19.9601 26.3034 19.4959 25.8085 19.4959 25.7696C19.4959 25.6661 20.1217 25.4059 20.7142 25.263C21.3499 25.1097 22.2485 25.1721 22.9482 25.4183ZM14.0822 29.2557C12.6616 29.6419 11.1939 30.6205 10.1685 31.865L9.64773 32.497L5.09914 32.5439L0.550557 32.5908L0.275232 32.8994L0 33.2079L0.0253022 39.4971L0.0506981 45.7863L0.313654 46.0127L0.576609 46.239H3.74473H6.91294L7.16006 45.9918C7.37522 45.7764 7.40708 45.6674 7.40708 45.1475V44.5506H8.81745C10.6215 44.5506 10.9681 44.399 10.9681 43.6099V43.3135L11.4601 43.3804C12.361 43.5029 13.0635 43.7892 14.576 44.65C16.5038 45.747 19.8333 47.3856 20.6311 47.6299C22.1505 48.0951 23.7948 48.1229 25.1702 47.7067C25.58 47.5827 28.0448 46.7138 30.6476 45.7757C33.2505 44.8376 36.5608 43.6474 38.004 43.1307C40.9069 42.0914 41.3288 41.8942 42.0419 41.2429C43.4679 39.9405 43.7709 38.2379 42.8711 36.5832C42.1703 35.2943 40.6319 34.5745 39.0581 34.7992C38.7361 34.8452 36.8731 35.3274 34.9183 35.8708C32.9633 36.4142 31.3528 36.8588 31.3393 36.8588C31.3257 36.8588 31.1788 36.6038 31.0128 36.2921C30.6702 35.6487 29.8339 34.8233 29.2262 34.5289C28.7959 34.3204 26.5847 33.5441 23.4583 32.5041L21.5637 31.8738L20.867 31.2005C19.4507 29.8316 17.9192 29.1955 15.8412 29.1132C14.9645 29.0784 14.6364 29.1051 14.0822 29.2557ZM16.8251 31.0899C17.1859 31.1655 17.8248 31.3969 18.2449 31.6041C18.8568 31.906 19.1429 32.1248 19.6835 32.7042L20.3583 33.4275L24.3082 34.7695C26.7817 35.6099 28.3971 36.2083 28.6302 36.3705C29.1431 36.7275 29.5105 37.286 29.5819 37.8175C29.6662 38.4437 29.2926 39.2051 28.743 39.5275C27.9467 39.9945 28.0292 40.0104 23.1221 38.4517C19.9663 37.4493 18.5721 37.0463 18.405 37.0883C17.9985 37.1904 17.7154 37.5545 17.7154 37.975C17.7154 38.709 17.6811 38.6929 22.5884 40.2563C26.7899 41.5949 27.0818 41.6744 27.7894 41.6745C29.3935 41.6748 30.7553 40.7077 31.2545 39.2137L31.3988 38.7818L34.6077 37.8969C39.7505 36.4787 39.4316 36.5516 40.0018 36.6635C40.6743 36.7955 41.0286 37.0714 41.3071 37.6804C41.7208 38.585 41.4366 39.4245 40.4874 40.1017C40.1819 40.3196 38.0649 41.1197 32.803 43.0058C28.8085 44.4375 25.2451 45.7169 24.8843 45.8488C24.3243 46.0535 24.0706 46.0887 23.1507 46.09C22.4081 46.0909 21.8836 46.0398 21.4639 45.9254C20.7327 45.7263 17.2802 44.0348 15.3257 42.9181C13.7799 42.035 12.9116 41.6999 11.7413 41.5348L10.9681 41.4258L10.9691 37.665L10.9699 33.9041L11.4484 33.2664C11.9628 32.5809 12.7816 31.8647 13.4959 31.4756C14.4368 30.963 15.5843 30.8301 16.8251 31.0899ZM5.53284 39.3915V44.363H3.70546H1.87808V39.3915V34.42H3.70546H5.53284V39.3915ZM9.09389 38.5509V42.6819L8.27392 42.6547L7.45394 42.6276L7.42948 38.6411C7.41598 36.4484 7.42526 34.6018 7.45 34.5372C7.48102 34.4561 7.74126 34.42 8.29444 34.42H9.09389V38.5509ZM14.6157 36.2888C13.9794 36.9257 14.5367 38.0157 15.4143 37.8509C15.8621 37.7668 16.1649 37.3986 16.1649 36.9377C16.1649 36.6282 16.1089 36.5081 15.8609 36.2864C15.4449 35.9143 14.9889 35.9152 14.6157 36.2888Z" fill="#15479E"/>
</svg>
