<svg width="137" height="80" viewBox="0 0 137 80" fill="none" xmlns="http://www.w3.org/2000/svg">
<path d="M45 18.3333C48.6667 18.3333 51.6667 15.3333 51.6667 11.6667C51.6667 8 48.6667 5 45 5C41.3333 5 38.3333 8 38.3333 11.6667C38.3333 15.3333 41.3333 18.3333 45 18.3333ZM32.6667 29.6667L23.3333 76.6667H30.3333L36.3333 50L43.3333 56.6667V76.6667H50V51.6667L43 45L45 35C49.3333 40 56 43.3333 63.3333 43.3333V36.6667C57 36.6667 51.6667 33.3333 49 28.6667L45.6667 23.3333C43.8 20.3667 40.0667 19.1667 36.8333 20.5333L20 27.6667V43.3333H26.6667V32L32.6667 29.6667Z" fill="#001768"/>
<path d="M92 18.3333C88.3333 18.3333 85.3333 15.3333 85.3333 11.6667C85.3333 8 88.3333 5 92 5C95.6667 5 98.6667 8 98.6667 11.6667C98.6667 15.3333 95.6667 18.3333 92 18.3333ZM104.333 29.6667L113.667 76.6667H106.667L100.667 50L93.6667 56.6667V76.6667H87V51.6667L94 45L92 35C87.6667 40 81 43.3333 73.6667 43.3333V36.6667C80 36.6667 85.3333 33.3333 88 28.6667L91.3333 23.3333C93.2 20.3667 96.9333 19.1667 100.167 20.5333L117 27.6667V43.3333H110.333V32L104.333 29.6667Z" fill="#001768"/>
</svg>
