<svg width="80" height="80" viewBox="0 0 80 80" fill="none" xmlns="http://www.w3.org/2000/svg">
<path d="M21.6667 6.66669C25.3333 6.66669 28.3333 9.66669 28.3333 13.3334C28.3333 17 25.3333 20 21.6667 20C18 20 15 17 15 13.3334C15 9.66669 18 6.66669 21.6667 6.66669ZM51.6667 31.6667C51.6667 34.4334 53.9 36.6667 56.6667 36.6667C59.4333 36.6667 61.6667 34.4334 61.6667 31.6667C61.6667 28.9 59.4333 26.6667 56.6667 26.6667C53.9 26.6667 51.6667 28.9 51.6667 31.6667ZM61.6667 40H52.2C50.2667 40.0334 48.4 41.0667 47.3667 42.8667L44.3 47.2667L32.4 26.6667C31.1667 24.5667 28.9667 23.3667 26.7 23.3334H16.6667C13 23.3334 10 26.3334 10 30V50H15V73.3334H31.6667V38.7L40.1 53.3334H47.4333L50 49.6667V73.3334H63.3333V56.6667H66.6667V45C66.6667 42.2667 64.4333 40 61.6667 40Z" fill="#001768"/>
</svg>
