<svg width="48" height="48" viewBox="0 0 48 48" fill="none" xmlns="http://www.w3.org/2000/svg">
<path d="M12 4C14.2 4 16 5.8 16 8C16 10.2 14.2 12 12 12C9.8 12 8 10.2 8 8C8 5.8 9.8 4 12 4ZM33 19C33 20.66 34.34 22 36 22C37.66 22 39 20.66 39 19C39 17.34 37.66 16 36 16C34.34 16 33 17.34 33 19Z" fill="#15479E"/>
<path d="M18.44 16C17.7 14.74 16.38 14.02 15.02 14H9C6.8 14 5 15.8 5 18V30H8V44H18V23.22L22 32H25.5L18.44 16Z" fill="#15479E"/>
<path d="M39 24H33.32C32.16 24.02 31.04 24.64 30.42 25.72L29 32H31L32 29.8V44H40V34H42V27C42 25.36 40.66 24 39 24Z" fill="#15479E"/>
</svg>
