<svg width="48" height="48" viewBox="0 0 48 48" fill="none" xmlns="http://www.w3.org/2000/svg">
<path d="M16.14 32C16.32 31.54 16.4 31.22 17.96 30.62C19.9 29.86 21.94 29.5 24 29.5C26.06 29.5 28.1 29.86 30.04 30.62C31.58 31.22 31.66 31.54 31.86 32H16.14ZM24 16C25.1 16 26 16.9 26 18C26 19.1 25.1 20 24 20C22.9 20 22 19.1 22 18C22 16.9 22.9 16 24 16Z" fill="#D0DAEC"/>
<path d="M8 26C10.2 26 12 24.2 12 22C12 19.8 10.2 18 8 18C5.8 18 4 19.8 4 22C4 24.2 5.8 26 8 26ZM10.26 28.2C9.52 28.08 8.78 28 8 28C6.02 28 4.14 28.42 2.44 29.16C0.96 29.8 0 31.24 0 32.86V36H9V32.78C9 31.12 9.46 29.56 10.26 28.2ZM40 26C42.2 26 44 24.2 44 22C44 19.8 42.2 18 40 18C37.8 18 36 19.8 36 22C36 24.2 37.8 26 40 26ZM48 32.86C48 31.24 47.04 29.8 45.56 29.16C43.86 28.42 41.98 28 40 28C39.22 28 38.48 28.08 37.74 28.2C38.54 29.56 39 31.12 39 32.78V36H48V32.86ZM32.48 27.3C30.14 26.26 27.26 25.5 24 25.5C20.74 25.5 17.86 26.28 15.52 27.3C13.36 28.26 12 30.42 12 32.78V36H36V32.78C36 30.42 34.64 28.26 32.48 27.3ZM16.14 32C16.32 31.54 16.4 31.22 17.96 30.62C19.9 29.86 21.94 29.5 24 29.5C26.06 29.5 28.1 29.86 30.04 30.62C31.58 31.22 31.66 31.54 31.86 32H16.14ZM24 16C25.1 16 26 16.9 26 18C26 19.1 25.1 20 24 20C22.9 20 22 19.1 22 18C22 16.9 22.9 16 24 16ZM24 12C20.68 12 18 14.68 18 18C18 21.32 20.68 24 24 24C27.32 24 30 21.32 30 18C30 14.68 27.32 12 24 12Z" fill="#15479E"/>
</svg>
