<svg width="48" height="48" viewBox="0 0 48 48" fill="none" xmlns="http://www.w3.org/2000/svg">
<path opacity="0.2" d="M38 38C38 39.1 37.1 40 36 40C34.9 40 34 39.1 34 38V32H16V10H38V38Z" fill="#15479E"/>
<path d="M39 7L36 4L33 7L30 4L27 7L24 4L21 7L18 4L15 7L12 4V32H6V38C6 41.32 8.68 44 12 44H36C39.32 44 42 41.32 42 38V4L39 7ZM38 38C38 39.1 37.1 40 36 40C34.9 40 34 39.1 34 38V32H16V10H38V38Z" fill="#15479E"/>
<path d="M30 14H18V18H30V14Z" fill="#15479E"/>
<path d="M36 14H32V18H36V14Z" fill="#15479E"/>
<path d="M30 20H18V24H30V20Z" fill="#15479E"/>
<path d="M36 20H32V24H36V20Z" fill="#15479E"/>
</svg>
