<svg width="80" height="80" viewBox="0 0 80 80" fill="none" xmlns="http://www.w3.org/2000/svg">
<path opacity="0.3" d="M30 33.3333C32.7614 33.3333 35 31.0947 35 28.3333C35 25.5719 32.7614 23.3333 30 23.3333C27.2386 23.3333 25 25.5719 25 28.3333C25 31.0947 27.2386 33.3333 30 33.3333Z" fill="#001768"/>
<path opacity="0.3" d="M14.4667 56.6667H45.5333C42.7333 54.7333 35.9667 52.5 30 52.5C24.0333 52.5 17.2667 54.7333 14.4667 56.6667Z" fill="#001768"/>
<path d="M30 40C36.4333 40 41.6667 34.7667 41.6667 28.3334C41.6667 21.9 36.4333 16.6667 30 16.6667C23.5667 16.6667 18.3333 21.9 18.3333 28.3334C18.3333 34.7667 23.5667 40 30 40ZM30 23.3334C32.7667 23.3334 35 25.5667 35 28.3334C35 31.1 32.7667 33.3334 30 33.3334C27.2333 33.3334 25 31.1 25 28.3334C25 25.5667 27.2333 23.3334 30 23.3334ZM30 45.8334C22.2 45.8334 6.66666 49.7334 6.66666 57.5V63.3334H53.3333V57.5C53.3333 49.7334 37.8 45.8334 30 45.8334ZM14.4667 56.6667C17.2667 54.7334 24.0333 52.5 30 52.5C35.9667 52.5 42.7333 54.7334 45.5333 56.6667H14.4667ZM53.4667 46.0334C57.3333 48.8334 60 52.5667 60 57.5V63.3334H73.3333V57.5C73.3333 50.7667 61.6667 46.9334 53.4667 46.0334ZM50 40C56.4333 40 61.6667 34.7667 61.6667 28.3334C61.6667 21.9 56.4333 16.6667 50 16.6667C48.2 16.6667 46.5333 17.1 45 17.8334C47.1 20.8 48.3333 24.4334 48.3333 28.3334C48.3333 32.2334 47.1 35.8667 45 38.8334C46.5333 39.5667 48.2 40 50 40Z" fill="#001768"/>
</svg>
