<svg width="48" height="48" viewBox="0 0 48 48" fill="none" xmlns="http://www.w3.org/2000/svg">
<path d="M13 4C15.2 4 17 5.8 17 8C17 10.2 15.2 12 13 12C10.8 12 9 10.2 9 8C9 5.8 10.8 4 13 4ZM31 19C31 20.66 32.34 22 34 22C35.66 22 37 20.66 37 19C37 17.34 35.66 16 34 16C32.34 16 31 17.34 31 19ZM37 24H31.32C30.16 24.02 29.04 24.64 28.42 25.72L26.58 28.36L19.44 16C18.7 14.74 17.38 14.02 16.02 14H10C7.8 14 6 15.8 6 18V30H9V44H19V23.22L24.06 32H28.46L30 29.8V44H38V34H40V27C40 25.36 38.66 24 37 24Z" fill="#15479E"/>
<path d="M26 5.66667L20 8.33334V12.3333C20 16.0333 22.56 19.4933 26 20.3333C29.44 19.4933 32 16.0333 32 12.3333V8.33334L26 5.66667ZM30.6667 12.3333C30.6667 15.3467 28.68 18.1267 26 18.9533C23.32 18.1267 21.3333 15.3467 21.3333 12.3333V9.20001L26 7.12667L30.6667 9.20001V12.3333ZM22.94 12.7267L22 13.6667L24.6667 16.3333L30 11L29.06 10.0533L24.6667 14.4467L22.94 12.7267Z" fill="#026F00"/>
<path opacity="0.3" d="M21.3333 9.2V12.3333C21.3333 15.3467 23.32 18.1267 26 18.9533C28.68 18.1333 30.6667 15.3467 30.6667 12.3333V9.2L26 7.12666L21.3333 9.2ZM30 11L24.6667 16.3333L22 13.6667L22.94 12.7267L24.6667 14.4467L29.06 10.0533L30 11Z" fill="#026F00"/>
</svg>
