<svg width="80" height="80" viewBox="0 0 80 80" fill="none" xmlns="http://www.w3.org/2000/svg">
<path opacity="0.3" d="M63.3333 16.6667H16.6667V63.3334H63.3333V16.6667ZM40 20C45.5 20 50 24.5 50 30C50 35.5 45.5 40 40 40C34.5 40 30 35.5 30 30C30 24.5 34.5 20 40 20ZM60 60H20V54.9C20 46.5667 33.2333 42.9667 40 42.9667C46.7667 42.9667 60 46.5667 60 54.9V60Z" fill="#001768"/>
<path d="M68.8667 12.9333C68.4 12.2333 67.7667 11.6 67.0667 11.1333C66.7 10.9 66.3333 10.7 65.9333 10.5333C65.1333 10.2 64.2667 9.99998 63.3333 9.99998H49.4C48 6.13331 44.3333 3.33331 40 3.33331C35.6667 3.33331 32 6.13331 30.6 9.99998H16.6667C13 9.99998 10 13 10 16.6666V63.3333C10 67 13 70 16.6667 70H63.3333C64.2667 70 65.1333 69.8 65.9333 69.4666C66.3333 69.3 66.7 69.1 67.0667 68.8666C67.7667 68.4 68.4 67.7666 68.8667 67.0666C69.5667 66 70 64.7 70 63.3333V16.6666C70 15.3 69.5667 14 68.8667 12.9333ZM40 9.16665C40.7333 9.16665 41.3667 9.49998 41.8333 9.99998C42.2333 10.4333 42.5 11.0333 42.5 11.6666C42.5 13.0333 41.3667 14.1666 40 14.1666C38.6333 14.1666 37.5 13.0333 37.5 11.6666C37.5 11.0333 37.7667 10.4333 38.1667 9.99998C38.6333 9.49998 39.2667 9.16665 40 9.16665ZM63.3333 63.3333H16.6667V16.6666H63.3333V63.3333ZM40 40C45.5 40 50 35.5 50 30C50 24.5 45.5 20 40 20C34.5 20 30 24.5 30 30C30 35.5 34.5 40 40 40ZM40 33.3333C38.1667 33.3333 36.6667 31.8333 36.6667 30C36.6667 28.1666 38.1667 26.6666 40 26.6666C41.8333 26.6666 43.3333 28.1666 43.3333 30C43.3333 31.8333 41.8333 33.3333 40 33.3333ZM40 42.9333C33.2333 42.9333 20 46.5333 20 54.8666V60H60V54.9C60 46.5333 46.7667 42.9333 40 42.9333ZM27.7 53.3333C30 51.4666 35.6333 49.6 40 49.6C44.3667 49.6 50.0333 51.4666 52.3 53.3333H27.7Z" fill="#001768"/>
</svg>
