<svg width="48" height="48" viewBox="0 0 48 48" fill="none" xmlns="http://www.w3.org/2000/svg">
<g opacity="0.3">
<path opacity="0.5" d="M25.0433 16.7333L21.0483 12C18.895 9.50001 16.0617 8.10001 13.03 8.10001C10.9617 8.10001 9.00665 8.73334 7.27832 9.93334L10.1967 13.3667H16.1183L15.665 19.6333C16.6567 20.4 17.8183 20.8333 19.0367 20.8333C20.6517 20.8333 22.1817 20.1 23.3433 18.7333L25.0433 16.7333Z" fill="#15479E"/>
</g>
<g opacity="0.3">
<path opacity="0.5" d="M21.8983 8.56666C22.295 8.93333 22.6916 9.23333 23.0316 9.66666L36.065 25V27.3333H34.0533L27.055 19.1L25.355 21.1C24.335 22.2667 23.145 23.0667 21.8983 23.5667V30.6667H36.065V37.3333C36.065 39.1667 37.34 40.6667 38.8983 40.6667C40.4567 40.6667 41.7317 39.1667 41.7317 37.3333V7.33333H21.8983V8.56666Z" fill="#15479E"/>
</g>
<path d="M19.065 4V6.43333C17.1383 5.36667 15.0983 4.76667 13.03 4.76667C9.40334 4.76667 5.77667 6.4 3 9.63334L9.00667 16.7H13.0017L12.7183 21.1C14.475 23.1667 16.7417 24.1667 19.0367 24.1667H19.065V30.6667H13.3983V39C13.3983 41.7667 15.2967 44 17.6483 44H38.8983C42.015 44 44.565 41 44.565 37.3333V4H19.065ZM19.0367 20.8333C17.8183 20.8333 16.6567 20.4333 15.665 19.6333L16.09 13.4H10.1967L7.27833 9.96667C9.00667 8.76667 10.99 8.13333 13.03 8.13333C16.0617 8.13333 18.895 9.53334 21.0483 12.0333L25.0433 16.7333L23.3433 18.7333C22.1817 20.0667 20.6517 20.8333 19.0367 20.8333ZM41.7317 37.3333C41.7317 39.1667 40.4567 40.6667 38.8983 40.6667C37.34 40.6667 36.065 39.1667 36.065 37.3333V30.6667H21.8983V23.5667C23.145 23.0667 24.335 22.2667 25.355 21.1L27.055 19.1L34.0533 27.3333H36.065V24.9667L23.0317 9.66667C22.6917 9.23333 22.295 8.93333 21.8983 8.56667V7.33333H41.7317V37.3333Z" fill="#15479E"/>
</svg>
